<svg xmlns="http://www.w3.org/2000/svg" viewBox="0 0 1500 1500" width="1500" height="1500"><g transform="translate(237.0 396.0) rotate(0.0 64.5 64.5) scale(1.29 1.29)"><svg width="100" height="100" viewBox="0 0 100 100"><circle cx="50" cy="50" fill="#F2F2F2" r="50"/></svg></g><g transform="translate(859.0 207.0) rotate(0.0 291.0 291.0) scale(5.82 5.82)"><svg width="100" height="100" viewBox="0 0 100 100"><circle cx="50" cy="50" fill="#ECECEC" r="50"/></svg></g><g transform="translate(404.0 808.0) rotate(0.0 326.0 244.5) scale(1.63 1.63)"><svg width="400" height="300" viewBox="0 0 400 300"><linearGradient id="a" gradientUnits="userSpaceOnUse" x1="0" x2="400" y1="150" y2="150"><stop offset="0" stop-color="#EEE"/><stop offset=".696" stop-color="#CED9E4"/><stop offset="1" stop-color="#C5D4E1"/></linearGradient><path d="M.073 0 0 299.998l7.511.002.072-292.441h385.361V300H400V0z" fill="url(#a)"/></svg></g><g transform="translate(638.0 936.0) rotate(0.0 93.0 93.0) scale(1.86 1.86)"><svg width="100" height="100" viewBox="0 0 100 100"><circle cx="50" cy="50" fill="#F4F4F4" r="50"/></svg></g><g transform="translate(498.0 267.0) rotate(0.0 123.0 123.0) scale(0.984 0.984)"><svg width="250" height="250" viewBox="0 0 250 250"><linearGradient id="b"><stop offset="0" stop-color="#c8dcfd"/><stop offset="1" stop-color="#9abef3"/></linearGradient><linearGradient xmlns:xlink="http://www.w3.org/1999/xlink" id="c" gradientTransform="matrix(1 0 0 -1 0 252)" gradientUnits="userSpaceOnUse" x1="51.612" x2="118.284" xlink:href="#b" y1="175.376" y2="81.924"/><linearGradient xmlns:xlink="http://www.w3.org/1999/xlink" id="d" gradientTransform="matrix(.8641 .1531 .1745 -.9847 7.9082 176.9885)" gradientUnits="userSpaceOnUse" x1="119.337" x2="189.565" xlink:href="#b" y1="18.952" y2="-79.486"/><linearGradient id="e" gradientTransform="matrix(.8565 -.1417 -.1632 -.9866 149.914 308.7003)" gradientUnits="userSpaceOnUse" x1="70.923" x2="136.71" y1="272.654" y2="180.443"><stop offset="0" stop-color="#a1c3fc"/><stop offset="1" stop-color="#78a9ef"/></linearGradient><path d="M122.428 138.248 0 126.854c8.142-8.099 12.559-26.308 13.913-52.827V53.311h108.515z" fill="url(#c)"/><path d="M13.913 53.311h108.515v18.645H13.913z" fill="#c2d8fd"/><path d="M170.924 250 55.556 217.845c9.208-6.582 16.596-23.757 22.49-49.637l3.591-20.399 104.008 18.557z" fill="url(#d)"/><path d="m81.638 147.817 104.012 18.558-3.231 18.359-104.013-18.558z" fill="#c2d8fd"/><path d="M250 63.669c-25.745 11.748-49.347 40.055-109.431 38.582-5.795-19.744-7.985-38.26-10.998-64.637l-3.359-20.439L229.312 0l3.753 22.837c-1.65 18.823 2.894 33.22 16.935 40.832z" fill="url(#e)"/><path d="M126.213 17.181 229.314.01l3.022 18.395-103.101 17.171z" fill="#a1c3fc"/><path d="M87.833 88.235c-3.281 0-5.521-2.542-6.878-4.708l-2.651 2.488a2.05 2.05 0 0 1-3.153-.426c-1.561-2.545-3.649-5.436-6.128-5.313-1.197.065-2.435.869-3.747 1.719-1.631 1.058-3.478 2.256-5.772 2.374a2.062 2.062 0 0 1-2.141-1.767l-.439-2.997a8.591 8.591 0 0 1-1.584.938c-2.701 1.227-5.695 1.145-8.102 1.076l-24.385-.681a2.064 2.064 0 0 1-1.999-2.129c.031-1.144.95-2.046 2.114-2.013l24.385.681c2.09.059 4.457.124 6.295-.711 1.263-.574 2.464-1.927 2.39-3.218l-.061-.411a2.07 2.07 0 0 1 1.672-2.342 2.064 2.064 0 0 1 2.377 1.611c.05.237.085.473.107.707l.963 6.57c.634-.317 1.284-.739 1.952-1.172 1.626-1.054 3.468-2.249 5.752-2.374 3.735-.205 6.429 2.346 8.471 5.181l2.821-2.649a2.045 2.045 0 0 1 1.783-.521 2.056 2.056 0 0 1 1.473 1.136c1.576 3.29 3.036 4.845 4.574 4.803.7-.027 1.53-.433 2.333-.826l7.759-3.798a2.052 2.052 0 0 1 2.75.957 2.078 2.078 0 0 1-.951 2.769l-7.76 3.798c-1.075.525-2.413 1.18-3.975 1.24a3.983 3.983 0 0 1-.245.008zm-7.938 31.05c-.239 0-.477-.041-.707-.126-7.653-2.816-14.239-8.585-18.069-15.826-.317-.599-.734-1.388-1.017-1.5-.079-.034-.549-.125-2.06 1.135l-11.114 9.266c-.597.496-1.989 1.664-3.771 1.306-2.035-.408-2.825-2.411-3.122-3.164l-3.253-8.244c-5.144 2.54-9.548 6.758-12.273 11.811a2.05 2.05 0 0 1-2.79.833 2.079 2.079 0 0 1-.827-2.809c3.503-6.499 9.427-11.794 16.252-14.525a2.039 2.039 0 0 1 1.575.023c.501.218.896.627 1.097 1.137l4.043 10.245c.068.173.127.307.176.411.074-.057.163-.127.267-.214l11.114-9.266c.944-.788 3.456-2.881 6.189-1.8 1.698.671 2.511 2.21 3.106 3.335 3.04 5.748 7.983 10.403 13.795 13.089a38.714 38.714 0 0 1 4.169-9.317 2.05 2.05 0 0 1 2.833-.667 2.081 2.081 0 0 1 .663 2.853 34.552 34.552 0 0 0-4.274 10.413 2.07 2.07 0 0 1-1.025 1.354 2.054 2.054 0 0 1-.977.247z" fill="#e94a47"/><g fill="#23286b"><path d="M186.84 63.688c-3.84 0-6.714-3.405-7.406-6.92-3.876 1.223-7.86 2.208-12.002 2.535-7.859.617-14.854-1.411-19.714-5.714-.853-.755-.936-2.065-.186-2.924s2.051-.943 2.904-.187c3.959 3.506 10.035 5.218 16.674 4.693 4.18-.329 8.297-1.428 12.334-2.76.363-2.168 1.157-4.194 1.845-5.947a2.06 2.06 0 0 1 1.779-1.306 2.045 2.045 0 0 1 1.934 1.06l2.808 5.077c.293.531.341 1.166.128 1.736a2.062 2.062 0 0 1-1.23 1.221c-1.096.396-2.2.796-3.311 1.186.008.081.017.162.028.241.258 1.949 1.883 4.015 3.639 3.856 1.322-.117 2.592-1.349 3.765-2.662a75.839 75.839 0 0 0 9.472-13.214 2.056 2.056 0 0 1 2.234-.999c.882.197 1.533.95 1.606 1.856.038.476.321.895.836 1.243.858.578 2.132.765 3.099.454 2.051-.661 3.666-2.586 5.416-4.849a2.05 2.05 0 0 1 2.888-.363 2.082 2.082 0 0 1 .36 2.908c-1.679 2.172-3.978 5.146-7.408 6.25-2.18.704-4.725.336-6.642-.958-.216-.145-.42-.3-.612-.463a79.84 79.84 0 0 1-8.188 10.907c-1.737 1.942-3.722 3.775-6.462 4.017a7.431 7.431 0 0 1-.588.026zM96.445 209.084a2.067 2.067 0 0 1-2.029-1.729 131.5 131.5 0 0 1-1.757-24.556c-2.987 5.473-4.894 11.655-6.635 17.294a2.054 2.054 0 0 1-2.575 1.363 2.076 2.076 0 0 1-1.355-2.594c2.529-8.195 5.396-17.485 11.421-24.696a2.05 2.05 0 0 1 2.357-.583 2.077 2.077 0 0 1 1.27 2.082 127.295 127.295 0 0 0 .461 24.849l6.259-11.628a2.033 2.033 0 0 1 2.017-1.073 2.06 2.06 0 0 1 1.761 1.461c.44 1.469 1.755 2.656 3.515 3.178 1.761.523 3.506.238 4.665-.754a2.05 2.05 0 0 1 3.315 1.02l2.508 9.032a2.049 2.049 0 0 1 2.577.314c.79.823.767 2.135-.05 2.929l-2.164 2.102a2.035 2.035 0 0 1-1.969.509 2.064 2.064 0 0 1-1.442-1.442l-2.724-9.811c-1.8.629-3.856.672-5.878.074-1.644-.487-3.077-1.342-4.187-2.458l-7.552 14.03a2.055 2.055 0 0 1-1.809 1.087zm52.448 7.316a2.06 2.06 0 0 1-1.987-1.529l-4.574-16.987a2.074 2.074 0 0 1 1.448-2.542 2.063 2.063 0 0 1 2.525 1.457l3.209 11.92 11.667-22.195a2.05 2.05 0 0 1 2.781-.862 2.078 2.078 0 0 1 .856 2.8l-14.106 26.835a2.056 2.056 0 0 1-1.819 1.103z"/></g></svg></g><g transform="translate(86.0 773.0) rotate(0.0 153.5 261.5) scale(1.497560975609756 1.4942857142857142)"><svg width="205" height="350" viewBox="0 0 205 350"><linearGradient id="f" gradientUnits="userSpaceOnUse" x1="0" x2="99.851" y1="175.547" y2="175.547"><stop offset="0" stop-color="#b9d3fd"/><stop offset="1" stop-color="#89b3f4"/></linearGradient><linearGradient id="g" gradientUnits="userSpaceOnUse" x1="63.498" x2="141.453" y1="197.74" y2="197.74"><stop offset="0" stop-color="#deeafe"/><stop offset="1" stop-color="#e9f1fe"/></linearGradient><linearGradient id="h" gradientUnits="userSpaceOnUse" x1="44.468" x2="111.145" y1="307.826" y2="307.826"><stop offset="0" stop-color="#eee"/><stop offset="1" stop-color="#d6d7d8"/></linearGradient><path d="m98.974 59.468.747-.898c-.165-.01-.332-.012-.498-.021 2.379-9.742-2.305-20.061-8.91-27.655-2.928-3.366-6.391-6.479-10.644-7.811-4.439-1.391-9.256-.698-13.764.449-13.154 3.345-25.315 10.524-34.612 20.432-3.02 3.219-5.915 7.357-5.057 11.691.959 4.841 6.405 9.242 4.174 13.641-2.301 4.534-10.146 2.886-12.964 7.117-4.343 6.518 9.109 14.335 5.656 21.366-1.771 3.604-6.649 3.906-10.321 5.516-7.044 3.089-9.866 13.149-5.458 19.463 3.922 5.618 12.606 9.611 10.967 16.266-.575 2.333-2.401 4.11-4.08 5.825-5.52 5.635-10.365 12.163-12.741 19.69-2.377 7.528-2.025 16.177 2.226 22.825 2.178 3.406 5.245 6.136 8.375 8.691 15.598 12.734 21.64 26.114 34.155 41.899 7.821 9.863 25.209 73.056 29.462 90.834 3.226-25.873 10.654-102.823 13.776-107.093 3.121-4.27 4.745-10.272 2.09-14.847-1.936-3.335-5.626-5.139-8.77-7.368-3.143-2.228-6.112-5.736-5.355-9.518.349-1.747 1.454-3.238 2.578-4.617 3.575-4.382 7.728-8.386 10.33-13.41s3.346-11.543.014-16.114c-3.126-4.289-9.135-6.176-13.824-8.806 4.002-3.075 9.875-5.172 13.203-9.142 2.539-3.027 3.468-7.336 2.402-11.142-1.124-4.018-4.163-7.122-6.598-10.533.502-1.982.353-3.971-.822-5.769-.624-.955-1.463-1.709-2.423-2.342-.129-2.01.321-3.947 1.652-5.487 2.029-2.345 5.461-2.974 7.709-5.11 3.564-3.386 2.361-10.326-2.133-12.311-2.586-1.141-6.399-1.438-6.819-4.238a2.908 2.908 0 0 1 .026-.955c6.661-6.193 13.781-12.03 16.251-20.518z" fill="url(#f)"/><path d="M133.622 207.735c-1.846-4.632-6.134-8.202-6.993-13.115-1.246-7.132 5.017-13.025 9.048-19.034 6.076-9.055 7.476-21.088 3.642-31.3s-12.801-18.338-23.326-21.136c-6.696-1.78-14.072-1.589-20.024-5.142-8.106-4.838-14.575-16.443-23.47-13.29-6.219 2.204-7.68 10.69-5.624 16.971s6.442 11.613 8.362 17.937c3.671 12.085-2.23 24.722-6.921 36.446s-7.915 26.2-.089 36.102c3.816 4.829 9.922 7.97 12.136 13.716 3.013 7.814-2.49 16.006-5.197 23.931-5.039 14.75.715 32.506 13.442 41.477.431-18.77 9.152-37.198 23.385-49.411 5.505-4.725 11.811-8.586 16.56-14.075 4.75-5.489 7.757-13.331 5.069-20.077z" fill="url(#g)"/><path d="M68.52 319.842a.851.851 0 0 1-.842-.97c4.05-28.816 10.15-55.857 18.131-80.372a.85.85 0 1 1 1.616.529c-7.952 24.42-14.029 51.364-18.065 80.081a.85.85 0 0 1-.84.732z" fill="#23286b"/><path d="M76.658 226.995c2.439-3.598 9.103-3.325 14.883.61 5.781 3.935 8.49 10.041 6.051 13.639s-9.103 3.325-14.883-.61c-5.781-3.935-8.49-10.042-6.051-13.639z" fill="#c6ddfe"/><path d="M88.435 234.165a.853.853 0 0 1-.805-1.128c4.103-11.998 8.761-23.657 13.842-34.649a.85.85 0 1 1 1.543.714c-5.058 10.938-9.693 22.541-13.777 34.484a.847.847 0 0 1-.803.579z" fill="#23286b"/><path d="M88.557 183.568c2.439-3.598 11.489-1.7 20.214 4.238s13.82 13.669 11.381 17.267-11.489 1.7-20.214-4.238c-8.724-5.939-13.82-13.669-11.381-17.267z" fill="#c6ddfe"/><path d="M104.03 195.801a.854.854 0 0 1-.767-1.22 332.755 332.755 0 0 1 4.753-9.547 304.554 304.554 0 0 1 14.448-24.92.85.85 0 1 1 1.427.924 303.987 303.987 0 0 0-14.367 24.779 329.353 329.353 0 0 0-4.729 9.498.843.843 0 0 1-.765.486z" fill="#23286b"/><path d="M108.784 141.551c2.885-2.88 12.018 1.616 20.4 10.043s12.838 17.594 9.954 20.474c-2.885 2.88-12.018-1.616-20.4-10.043s-12.838-17.594-9.954-20.474z" fill="#c6ddfe"/><path d="M125.855 157.355a.852.852 0 0 1-.706-1.326c6.892-10.298 14.412-20.096 22.349-29.122a.85.85 0 1 1 1.276 1.126c-7.888 8.971-15.361 18.71-22.213 28.946a.848.848 0 0 1-.706.376z" fill="#23286b"/><path d="M139.931 97.672c5.094-2.225 14.471 8.035 20.945 22.915 6.474 14.881 7.592 28.747 2.499 30.972-5.094 2.225-14.471-8.035-20.945-22.915s-7.592-28.747-2.499-30.972z" fill="#c6ddfe"/><path d="M152.311 123.686a.853.853 0 0 1-.624-1.43c8.162-8.849 16.879-17.059 25.911-24.4a.85.85 0 1 1 1.071 1.322c-8.969 7.29-17.626 15.442-25.734 24.233a.841.841 0 0 1-.624.275z" fill="#23286b"/><path d="M160.176 68.748c4.283-3.547 17.487 5.376 29.493 19.929 12.005 14.554 18.266 29.227 13.983 32.775-4.283 3.547-17.487-5.376-29.493-19.929s-18.266-29.228-13.983-32.775z" fill="#c6ddfe"/><path d="M182.612 95.82a.852.852 0 0 1-.519-1.526 226.267 226.267 0 0 1 18.412-12.834.852.852 0 0 1 .9 1.445 224.711 224.711 0 0 0-18.273 12.738.853.853 0 0 1-.52.177z" fill="#23286b"/><path d="m83.614 336.134-3.072-9.355a.853.853 0 0 1 .889-1.115c-2.022-45.34-3.106-98.488 2.91-152.53.286-2.57.59-5.155.905-7.682a.86.86 0 0 1 .949-.74.853.853 0 0 1 .739.951 625.112 625.112 0 0 0-.903 7.661c-6.197 55.65-4.845 110.383-2.706 156.584z" fill="#1d72d8"/><path d="M74.732 165.78c-.64-2.323 3.858-5.593 10.046-7.303s11.722-1.213 12.362 1.11-3.858 5.593-10.046 7.303-11.723 1.213-12.362-1.11z" fill="#23286b"/><path d="M86.567 162.67a.852.852 0 0 1-.843-.962c2.064-15.822 4.742-31.309 7.958-46.03a.85.85 0 1 1 1.66.364c-3.206 14.674-5.875 30.114-7.933 45.888a.852.852 0 0 1-.842.74z" fill="#1d72d8"/><path d="M79.826 117.243c-.64-2.323 5.172-5.956 12.98-8.114s14.656-2.024 15.296.299-5.172 5.956-12.98 8.114-14.656 2.024-15.296-.299z" fill="#23286b"/><path d="M95.32 113.074a.85.85 0 0 1-.83-1.04c3.032-13.401 6.598-26.526 10.598-39.011a.849.849 0 1 1 1.618.52c-3.985 12.439-7.538 25.516-10.56 38.868a.845.845 0 0 1-.826.663z" fill="#1d72d8"/><ellipse cx="105.686" cy="69.964" fill="#23286b" rx="18.512" ry="6.936" transform="matrix(-.9963 -.086 .086 -.9963 204.9655 148.7545)"/><path d="M107.488 69.27a.852.852 0 0 1-.806-1.122 407.76 407.76 0 0 1 9.723-26.158.849.849 0 0 1 1.11-.462c.434.18.64.677.461 1.113a406.324 406.324 0 0 0-9.682 26.047.848.848 0 0 1-.806.582z" fill="#1d72d8"/><path d="M98.871 35.55c.548-3.456 9.528-4.9 20.058-3.225s18.622 5.835 18.074 9.291-9.528 4.9-20.058 3.225c-10.529-1.675-18.621-5.835-18.074-9.291z" fill="#23286b"/><path d="M118.917 39.042a.853.853 0 0 1-.782-1.187 375.936 375.936 0 0 1 9.375-20.326.85.85 0 1 1 1.521.761 375.14 375.14 0 0 0-9.332 20.234.85.85 0 0 1-.782.518z" fill="#1d72d8"/><path d="M106.752 10.612c.662-4.18 10.948-6.018 22.973-4.105s21.237 6.852 20.574 11.032c-.662 4.18-10.948 6.018-22.973 4.105s-21.237-6.852-20.574-11.032z" fill="#23286b"/><path d="M131.214 12.991a.853.853 0 0 1-.752-1.248 331.786 331.786 0 0 1 6.19-11.317.85.85 0 1 1 1.475.849 330.124 330.124 0 0 0-6.158 11.259.851.851 0 0 1-.755.457z" fill="#1d72d8"/><path d="M44.468 265.653h66.677V350H44.468z" fill="url(#h)"/></svg></g><g transform="translate(404.0 514.0) rotate(0.0 158.5 158.0) translate(0.0 293.0) scale(0.5284125952226167 0.5281631288651178)"><svg width="598.018" height="43.547" viewBox="0 554.753 598.018 43.547"><clipPath id="i"><path d="M-.18 72.68H599.9v450.19H-.18z"/></clipPath><path d="M0 0h599.91v372.58H0z" fill="#fff"/><g clip-path="url(#i)"><path d="M-.18-.12H599.9v522.99H-.18z" fill="#fff"/><path d="M408.94 237.38c-4.47 9.87-8.8 19.89-12.66 29.48A31.93 31.93 0 0 0 336.69 283a12.2 12.2 0 0 0 .14 2.25 41.81 41.81 0 0 0-20.68 15.59 40.21 40.21 0 0 1 14.45-68.09 11.45 11.45 0 0 0 8-11.16 34.41 34.41 0 0 1 .21-4.95 33 33 0 0 1 65.83 3.87 32.2 32.2 0 0 1-.45 5.41 11.76 11.76 0 0 0 4.75 11.46zm-150.56 7.35c-.12.75-.21 1.52-.26 2.29s-.06 1.48-.06 2.2a15.17 15.17 0 0 1-9.31 14.1c-14.82 6.27-12.45 25.16-11.48 42.48.84 14.88 16.22 32.17 29.19 38.13-4 1.07-26.95-6.66-31.29-6.66h-19.46a57 57 0 0 0 1.35-12.41c0-21.8-27.36-79.8-44.15-113.33a43.47 43.47 0 0 1 43.76-30.85c22.85 1.15 41 20.33 41.14 43.22a43.47 43.47 0 0 1-1 9.49 16.28 16.28 0 0 0 1.57 11.34z" fill="#f9f9f9"/><path d="M336.69 288a12.2 12.2 0 0 0 .14 2.25 41.71 41.71 0 0 0-23.11 59.36 26.19 26.19 0 0 1-10.2 2 26.5 26.5 0 0 1-18.13-7.25v24.4h-9.86V337a14.55 14.55 0 0 0-5.51-.22 40.68 40.68 0 0 1-9.39.29c-35.18 17.74-34.82-17.61-35.91-37a39.48 39.48 0 0 1 24-38.66 15.18 15.18 0 0 0 9.32-14.1c0-.72 0-1.46.06-2.2a25.82 25.82 0 0 1 51.57 1.78 28.65 28.65 0 0 1-.18 3.09 1.31 1.31 0 0 0 1.3 1.47A32.29 32.29 0 0 1 340.94 272a32 32 0 0 0-4.25 16zm-119.63 27.86a56.93 56.93 0 0 1-102.88 33.65h4.37c19.37 0 35.53-15.42 35.75-34.8a35.35 35.35 0 0 0-12.67-27.52 18.44 18.44 0 0 1-6.69-16.64 32.09 32.09 0 0 0-7.84-25.66c15.57-34.55 33-67.25 33-67.25s56.96 106.76 56.96 138.22z" fill="#eee"/><path d="M143.93 270.55a31 31 0 0 0 .3-4.56 32 32 0 1 0-63.92.23 3.28 3.28 0 0 1-2.06 3.05 41.69 41.69 0 0 0-26 38.79c.12 23 19.31 41.43 42.33 41.43h9v15.38c0 2.25 8.41 2.5 8.41.18v-15.54h15.56c37.07 7.2 35.53-15.42 35.74-34.79a35.33 35.33 0 0 0-12.67-27.53 18.52 18.52 0 0 1-6.69-16.64z" fill="#e5e5e5"/><path d="M469.14 327.49c0 16.13 5.54 30.41 14.07 39.15-18.32 1.43-71.26 5.34-82.77-6.18a35.32 35.32 0 0 0-3.61-64.46 31.92 31.92 0 0 0-.55-31.12c18.77-46.78 49.13-103.72 49.13-103.72s24.69 46.28 43.29 89.67c-9.21 27.64-19.56 61.92-19.56 76.66z" fill="#eee"/><g fill="#e5e5e5"><path d="M536.57 327.49c0 26.61-15.09 40.68-33.71 40.68s-33.72-14.07-33.72-40.68 33.72-116.92 33.72-116.92 33.71 90.31 33.71 116.92zM397.6 296a31.64 31.64 0 0 0 3.79-15 32 32 0 1 0-63.92 0 12 12 0 0 0 .14 2.24 41.64 41.64 0 0 0 13.32 81.05h9.81V367a4.13 4.13 0 0 0 4.2 4.21 4.22 4.22 0 0 0 4.21-4.21v-2.66h16.26A35.28 35.28 0 0 0 397.6 296z"/></g></g><path d="M50.59 372.81s16.9-28.48 40.92-23.48a21.25 21.25 0 0 1 41.31-1 14.77 14.77 0 0 1 15.92-1 27.32 27.32 0 0 1 40-23.8 27.34 27.34 0 0 1 51.74 17.21 27.32 27.32 0 0 1 28.23-10.54 27.33 27.33 0 0 1 52.76 5 27.34 27.34 0 0 1 28.84 1.49 27.32 27.32 0 0 1 47.5-.41 14.6 14.6 0 0 1 6.36-1.46 14.81 14.81 0 0 1 13.3 8.33 14.82 14.82 0 0 1 3-1.08 21.25 21.25 0 0 1 41 0c.18-.2.36-.41.56-.61A27.33 27.33 0 1 1 514.69 331a26.74 26.74 0 0 1-.39 4.59 14.8 14.8 0 0 1 14.06 14.77c0 2.89 28.09 6.84 28.09 22.41z" fill="#fff"/><path d="M-.18 372.58H599.9v225.73H-.18z" fill="#eee"/></svg></g><g transform="translate(1056.0 808.0) rotate(0.0 -326.0 244.5) translate(-0.0 0.0) scale(-1.63 1.63)"><svg width="7.975" height="300" viewBox="0 0 7.975 300"><linearGradient id="j" gradientUnits="userSpaceOnUse" x1="0" x2="400" y1="150" y2="150"><stop offset="0" stop-color="#EEE"/><stop offset=".696" stop-color="#CED9E4"/><stop offset="1" stop-color="#C5D4E1"/></linearGradient><path d="M.073 0 0 299.998l7.511.002.072-292.441h385.361V300H400V0z" fill="url(#j)"/></svg></g><g transform="translate(673.0 385.0) rotate(0.0 333.5 459.0) scale(2.470489319856141 2.4678679825044827)"><svg width="269.987" height="371.981" viewBox="0 0 269.987 371.981"><linearGradient id="l" gradientUnits="userSpaceOnUse" x1="212.405" x2="265.26" y1="235.032" y2="235.032"><stop offset="0" stop-color="#23286b"/><stop offset="1" stop-color="#151a4f"/></linearGradient><linearGradient id="k"><stop offset="0" stop-color="#a1c3fc"/><stop offset="1" stop-color="#78a9ef"/></linearGradient><linearGradient xmlns:xlink="http://www.w3.org/1999/xlink" id="m" gradientUnits="userSpaceOnUse" x1="142.21" x2="293.21" xlink:href="#k" y1="100.086" y2="81.086"/><linearGradient xmlns:xlink="http://www.w3.org/1999/xlink" id="n" gradientUnits="userSpaceOnUse" x1="151.43" x2="179.43" xlink:href="#k" y1="81.872" y2="124.872"/><path d="M2.528 170.817H163.21v9.623H2.528z" fill="#eee"/><path d="M155.729 174.955c.464.557.47 1.349.49 2.074.104 3.885 1.936 13.995 3.3 11.042a27.19 27.19 0 0 0 .196-12.45c1.998 1.507 1.702 4.51 1.528 7.007s2.001 7.248 3.162 5.897c.97-4.426 1.125-8.862.63-13.366a52.438 52.438 0 0 0 3.855 9.295c.217.407.484.848.929.968 1.173.315 1.468-1.581 1.121-2.745-1.444-4.844-3.66-10.453-8.582-11.604-2.449-.573-6.046-.661-6.153-3.174a313.836 313.836 0 0 0 9.634-27.131c-3.201-.427-6.171-2.347-7.875-5.09-3.927 6.839-7.885 13.746-10.228 21.276-.714 2.296-1.293 4.681-2.591 6.705-2.495 3.891-7.138 5.74-11.524 7.195-1.693.562-3.766 2.422-2.47 3.648a51.05 51.05 0 0 1 17.079-2.687l6.177 2.357c.484.185.99.385 1.322.783zm-104.57-8.657c-1.629-2.648 15.222-2.571 22.834-3.857 4.626-.781 9.433-1.636 13.237-4.383 2.974-2.147 5.069-5.266 7.211-8.245a152.884 152.884 0 0 1 5.468-7.154c.825-1.016 1.887-2.12 3.189-1.989 1.314.132 2.184 1.558 2.176 2.878s-.655 2.541-1.286 3.701l-6.226 11.449c-1.036 1.905-2.106 4.038-1.6 6.147.945 3.935 8.493 5.93 8.436 8.392.058 2.038-8.574-.739-11.898-3.351-.55-.432-1.082-.906-1.724-1.181-1.443-.619-3.092-.12-4.598.325-10.377 3.063-21.59 3.241-32.059.509-.066-1.395 1.393-2.44 2.782-2.581 1.39-.14 2.76.328 4.145.509 1.838.24 4.201.201 6.034-.066 4.861-.707 7.139-1.043 12-1.75-10.035.964-26.625 1.873-28.121.647z" fill="#ffbeb6"/><path d="M252.608 302.938a52.017 52.017 0 0 0 16.297 9.14 707.88 707.88 0 0 1-8.174 55.235c-6.905-2.872-12.006-9.129-14.83-16.054-2.825-6.925-3.603-14.509-3.809-21.985-.041-1.486-.055-3.01.443-4.411.554-1.56 1.69-2.828 2.61-4.204 3.295-4.928 3.832-11.273 6.962-16.307 2.486-4.002-3.48 1.106.501-1.414z" fill="#d62929"/><path d="M251.008 344.35c-.589 8.23-.103 24.549-.103 24.549s-53 .5-63.5.5c1.656-6.709 5.608-9.992 11.917-12.811 1.941-.867 3.991-1.458 6.033-2.047l21.018-6.055c4.299-1.238 8.636-2.484 13.098-2.807 3.998-.289 8.153.148 11.9-1.275-4.274 6.79.21-8.055-.363-.054z" fill="#e94a47"/><path d="M242.259 274.881c-2.157-2.663-5.173-4.953-7.854-6.982-4.26-3.224-3.243-5.731-6-10.5-1.992-3.445-6.43-6.968-8.613-10.276-.587-.889-1.04-1.975-.863-3.044.144-.87.679-1.592 1.19-2.278 14.022-18.812 23.406-41.198 30.959-63.988 2.554-7.706 4.948-15.865 3.74-23.985-2.149-14.443-14.635-24.08-26.042-32.012-2.285 8.88-9.238 15.194-14.536 22.385-5.297 7.191-9.042 17.717-4.228 25.403a2596.227 2596.227 0 0 0-19.18 69.047c-1.099 4.18-2.199 8.527-1.558 12.836.612 4.115 2.747 7.765 4.834 11.282l16.115 27.16c8.567 14.439 17.189 28.992 23.05 44.915 4.703-8.704 10.741-16.553 17.795-23.131-4.472-9.332-6.983-19.741-7.286-30.209-.067-2.319-.103-4.87-1.523-6.623z" fill="#151a4f"/><path d="M259.405 306.899c.858-3.92 2.962-15.524 3.5-19.5 1.465-10.836-3.349-19.691-5-30.5-1.009-6.609-1.182-10.153-1.126-16.838.081-9.675 1.546-12.487 1.626-22.162.07-8.322-.577-27.329 1-35.5 1.953-10.118 5.532-16.088 5.839-26.388.461-15.445-8.915-30.748-22.886-37.35-9.604 5.056-19.604 20.97-29.953 24.238 9.845 30.234 4.919 51.41 8.891 82.958.72 5.717 1.742 11.434 3.737 16.84 1.34 3.633 3.11 7.097 4.414 10.743 2.603 7.277 3.292 15.087 3.679 22.806a320.895 320.895 0 0 1-4.483 71.797 69.153 69.153 0 0 1 22.608 3.36c17.154-23.004 4.693-28.693 8.154-44.504z" fill="url(#l)"/><path d="m172.382 47.48-25.104 3.923c-1.737.271-3.497.549-5.099 1.229-4.661 1.979-12.545 13.606-14.273 18.101-5.43 14.119-7.784 19.535-12 32-6.848 20.243-12.205 37.306-26.875 53.667 13.39.885 12.365 6.613 25.542 9-3.333-16 19.35-46.137 30-71.333 2.837-6.712 4.659-20.107 10.793-24.521 1.915-1.378 10.706-2.712 12.545-4.177 5.349-4.264 7.25-11.868 4.471-17.889z" fill="#81aef2"/><path d="M183.897 48.534c5.919 3.588 5.659 7.931 10.659 12.717 7.515 7.194 13.583 13.928 21.606 20.55 5.902 4.871 10.77 10.866 15.35 16.997 6.973 9.335 17.932 9.159 23.725 19.268-11.347 9.472-29.352 26.342-43.649 30.091.608-5.011-2.363-9.89-6.278-13.077s-8.706-5.051-13.291-7.165c-14.738-6.792-30.367-15.835-36.902-30.688-10.714-24.348-17.458-29.997-11.579-45.123 1.036-2.665 8.412-6.933 11.097-7.917 1.97-.722 2.319-3.32 4.376-2.903 5.225 1.06 20.327 4.486 24.886 7.25z" fill="url(#m)"/><path d="M176.193 110.961c-.856-.269-1.506.766-1.807 1.61l-19.065 53.391" fill="none" stroke="#000" stroke-miterlimit="10"/><path d="M137.674 41.404c1.574-1.008 3.751-.438 5.175.773s2.229 3.015 3.178 4.625c2.603 4.416 1.042 2.691 5.085 5.843 4.328-1.623 11.071-5.935 14.391-10.82-6.294-6.044-7.885-9.155-11.19-17.231-3.572 7.18-9.496 13.165-16.639 16.81z" fill="#f2a19c"/><path d="m142.528 12.151-9.694 16.74c-1.652 2.852-3.317 6.428-1.627 9.258 1.733 2.9 5.803 3.052 9.175 2.856 2.488-.144 5.798-1.176 5.555-3.656" fill="none" stroke="#000" stroke-miterlimit="10"/><path d="M140.26 29.62c.747-1.893.658-3.993.767-6.025s.501-4.203 1.943-5.639c1.441-1.436 4.227-1.624 5.319.093a17.79 17.79 0 0 1-2.046 10.128c-.633 1.17-1.476 2.331-2.72 2.803-1.245.47-2.936-.071-3.263-1.36z" fill="none" stroke="#000" stroke-miterlimit="10"/><path d="m150.075 37.912 7.624-7.988c1.711-1.792 3.454-3.632 4.462-5.895 1.932-4.334.653-9.797-2.801-13.051s-8.775-4.241-13.277-2.74c-6.531 2.177-11.635 10.125-16.423 15.07-1.489 1.895 2.235 3.208 1.38 5.623-1.027 2.9-1.804 6.052-1.035 9.03s2.632 5.375 6.605 5.28c1.214-.029 3.395-.215 4.553-.581 2.444-.773 4.112-1.157 6.312-2.473.992-.593 1.803-1.439 2.6-2.275z" fill="#ffbeb6"/><path d="M141.126 26.656a5.03 5.03 0 0 1-2.004-.412c-2.894-1.25-4.071-4.991-2.625-8.34 1.09-2.522 3.448-4.217 5.869-4.217.696 0 1.371.138 2.003.412 2.894 1.25 4.071 4.992 2.625 8.34-1.09 2.522-3.448 4.217-5.868 4.217zm1.24-11.969c-2.027 0-4.017 1.452-4.951 3.613-1.228 2.843-.284 5.995 2.104 7.026.507.219 1.047.33 1.607.33 2.026 0 4.017-1.452 4.95-3.614 1.228-2.843.284-5.994-2.104-7.026a4.041 4.041 0 0 0-1.606-.329zm6.15 49.644s-.755-6.531-1.262-9.569c2.339.623 4.799.79 7.201.488-1.927 3.657-2.253 5.56-3.018 9.622-1.087-.5-2.921-.541-2.921-.541z" fill="#23286b"/><path d="M151.366 64.41c-1.049.3-2.269-.174-2.841-1.103-1.595 6.678.458 13.611 1.041 20.452.747 8.766-.942 17.534-1.482 26.315s.239 18.129 5.265 25.35a260.854 260.854 0 0 1 2.011-44.878c.315-2.39.664-4.804.428-7.203-.639-6.514-5.515-12.479-4.422-18.933z" fill="#151a4f"/><path d="M172.211 44.206c-2.813-.866-6.845-3.157-9.305-5.194-2.665 5.72-5.899 11.166-11.794 13.417 1.524 5.565 2.767 11.41 2.444 17.17 5.883-6.672 9.674-9.224 14.76-16.521 2.489-3.57 4.998-8.533 3.895-8.872z" fill="#eee"/><path d="M159.703 33.281a.501.501 0 0 1-.188-.964c9.277-3.756 17.586-16.611 17.78-27.51.005-.276.243-.463.509-.491a.5.5 0 0 1 .491.509c-.2 11.251-8.801 24.532-18.405 28.419a.476.476 0 0 1-.187.037z" fill="#428dfc"/><path d="M193.905 68.066c.418-7.864-5.952-21.074-14-20.167-9.226 1.04-8.562 5.599-9.887 14.643-1.621 11.069-5.037 34.068-8.113 46.857-5.072 21.089-9.375 32.167-15.375 51.5 6.839 6.521 12.493 5.958 20.259 11.42 2.885-12.009 4.449-11.586 8.449-34.253 1.459-8.268 5.835-31.243 8-39.333 4.081-15.246 9.83-14.922 10.667-30.667z" fill="url(#n)"/><path d="M130.516 22.655c-.249 0-.487-.048-.707-.143-1.582-.684-1.779-3.505-.459-6.562 1.279-2.96 3.56-4.824 5.093-4.163 1.583.684 1.78 3.505.46 6.562-1.096 2.535-2.899 4.306-4.387 4.306zm3.22-10.011c-.905 0-2.429 1.298-3.468 3.703-1.132 2.62-.941 4.868-.063 5.248.858.368 2.609-.937 3.779-3.642 1.132-2.619.94-4.868.062-5.248a.762.762 0 0 0-.31-.061z" fill="#23286b"/><path d="M151.221 52.537s-6.93 9.427-7.466 14.174c-.161-5.483-1.407-9.413-.541-14.499 1.56-2.708 1.361-2.702 2.921-5.41 1.129 3.43 5.086 5.735 5.086 5.735z" fill="#eee"/><path d="M174.078 4.388h-35.103c-4.416 4.239-1.932 6.786-1.601 10.124 1.916-2.822 9.844-1.793 12.445.605s2.656 6.203 1.077 9.171c1.806-1.203 4.67.287 5.166 2.185s-.544 3.816-1.556 5.561l-1.238 2.134c2.653.552 5.503-.24 7.708-1.604 2.206-1.364 3.874-3.248 5.451-5.135 5.071-6.066 9.746-13.134 8.598-20.498-.047-.311-.655-2.396-.947-2.543zm72.914 337.019-.873-.486a35.374 35.374 0 0 0 4.459-16.43c.063-3.028-.269-6.112-.59-9.096-.355-3.298-.723-6.709-.564-10.092.21-4.527 1.355-8.98 2.464-13.286 1.031-4.011 2.099-8.157 2.391-12.319.53-7.544-1.461-15.089-3.388-22.386-.455-1.726-.909-3.447-1.332-5.169a147.722 147.722 0 0 1-4.053-43.103c.377-7.086 1.271-14.33 2.137-21.334 2.067-16.742 4.205-34.053-.642-50.246l.957-.287c4.908 16.395 2.757 33.812.677 50.656-.863 6.988-1.755 14.214-2.131 21.265a146.773 146.773 0 0 0 4.025 42.812c.422 1.716.875 3.433 1.328 5.151 1.947 7.376 3.961 15.003 3.419 22.712-.299 4.252-1.378 8.444-2.421 12.498-1.095 4.257-2.228 8.659-2.434 13.084-.153 3.306.21 6.677.561 9.938.325 3.015.66 6.132.596 9.225a36.382 36.382 0 0 1-4.586 16.893z" fill="#428dfc"/><path d="M214.381 103.433c-.072-.158-.303-.242-.461-.17-.158.072-.244.303-.171.46.072.158.303.242.461.17.159-.072.28-.223.171-.46zm-17.102-28.842c.085-.23.013-.387-.218-.474-.152-.122-.388-.013-.51.138-.085.23-.013.387.218.474.23.086.388.013.51-.138zm-3.442 7.886c.085-.23.013-.387-.218-.474-.23-.086-.388-.013-.474.217-.122.152-.013.387.218.474.195.006.432-.103.474-.217zm15.991 5.464c-.152-.122-.345-.128-.467.023-.122.152-.127.344.024.467.152.122.345.128.467-.023.158-.072.128-.345-.024-.467zm-6.138 5.971c-.152-.122-.345-.128-.467.023-.122.152-.127.345.023.467.152.122.345.128.467-.023s.128-.346-.023-.467zm-23.791-19.085c.007-.194-.146-.316-.339-.321-.194-.007-.316.145-.321.339-.007.194.145.315.26.358.272-.031.393-.182.4-.376zm35.674 19.364c-.072-.158-.267-.164-.423-.092-.158.072-.164.267-.092.423.072.158.267.164.423.092.122-.15.165-.265.092-.423zm-6.021 4.771c-.072-.158-.267-.164-.423-.092-.158.072-.164.267-.092.423.072.158.267.164.423.092.236-.108.243-.301.092-.423zm-22.123-20.233c.007-.194-.145-.315-.26-.358-.194-.007-.351.066-.358.26-.007.194.066.351.26.358.115.042.273-.031.358-.26zm25.027 33.806c-.072-.158-.224-.278-.381-.207-.158.072-.279.224-.207.381.072.158.224.279.381.207.157-.072.278-.224.207-.381zm-10.738-24.981c.122-.152.013-.387-.102-.431-.152-.122-.309-.049-.431.102-.122.152-.049.309.102.431.152.122.389.013.431-.102zm-3.713 6.674c.122-.152.049-.309-.102-.431-.152-.122-.309-.049-.431.102-.122.152-.049.309.102.431.152.121.31.049.431-.102zm15.272 14.49c-.037-.079-.23-.086-.309-.049-.079.036-.085.23-.049.309.037.079.23.086.309.049.159-.074.122-.151.049-.309zm-18.818-10.569c.043-.116-.072-.158-.188-.2-.116-.043-.237.109-.2.188-.042.116.109.237.188.2.114.04.157-.074.2-.188zm21.187 21.521c-.037-.079-.188-.2-.267-.164-.079.036-.2.188-.164.267.037.079.188.2.267.164.157-.073.2-.189.164-.267zm2.816-33.111c.122-.152.013-.387-.139-.51-.152-.122-.388-.013-.51.138-.122.152-.013.387.139.51.152.122.389.014.51-.138zm-4.254 7.781c.122-.152.013-.387-.139-.51-.152-.122-.388-.013-.51.138-.122.152-.013.387.139.51.231.086.389.013.51-.138zm-4.175 7.744c.122-.152.013-.387-.139-.51-.152-.122-.388-.013-.51.138-.122.152-.013.387.139.51s.389.014.51-.138zm6.317 10.192c-.152-.122-.381-.207-.503-.056-.122.152-.207.381-.055.502.152.122.381.207.503.056.122-.15.207-.381.055-.502zm-15.83-27.324c.007-.194-.181-.394-.376-.401-.194-.007-.395.181-.4.375-.007.194.102.431.297.437.272-.03.393-.181.479-.411zm-.907 8.824c.007-.194-.102-.431-.376-.401-.194-.007-.316.145-.437.296-.007.194.102.431.297.437.311.049.431-.102.516-.332zm17.465 24.854c-.152-.122-.381-.207-.503-.056-.122.152-.207.381-.055.502.072.158.303.242.503.056.158-.071.243-.301.055-.502zm-10.546-34.527c.007-.194-.102-.431-.297-.437s-.431.102-.437.296c-.007.194.066.351.297.437.194.007.431-.101.437-.296zm-1.33 8.734c.007-.194-.102-.431-.297-.437-.194-.007-.353.066-.437.296-.007.194.102.431.297.437.272-.03.431-.103.437-.296zm-1.253 8.695c.007-.194-.102-.431-.297-.437-.194-.007-.431.102-.437.296-.007.194.102.431.297.437.23.086.431-.102.437-.296zm13.692.884c.122-.152.013-.387-.139-.51-.152-.122-.388-.013-.51.138-.122.152-.013.387.139.51.229.085.387.013.51-.138zm-4.521 7.617c.122-.152.013-.387-.139-.51-.152-.122-.388-.013-.51.138-.122.152-.013.387.139.51.23.086.388.014.51-.138zm-11.867-11.659c.007-.194-.109-.237-.303-.242-.194-.007-.237.109-.244.303s.109.237.303.242c.159-.072.238-.109.244-.303zm13.08 5.368c.042-.116-.03-.273-.145-.315-.116-.043-.273.029-.315.145s.03.273.145.315c.114.043.271-.03.315-.145zM212.149 110c.042-.116-.03-.273-.181-.394a.262.262 0 0 0-.315.145c-.042.116.03.273.145.314.186.202.344.129.351-.065z" fill="#fff" opacity=".86"/></svg></g><g transform="translate(390.0 650.0) rotate(0.0 171.0 79.5) scale(3.29390915745271 3.2954733874979274)"><svg width="103.828" height="48.248" viewBox="-343.543 748.354 103.828 48.248"><path d="M-286.495 789.769h46.78v6.833h-46.78z" fill="#89b3f4"/><path d="M-343.543 748.354h58.134l13.403 48.248h-58.134z" fill="#a1c3fc"/><circle cx="-309.512" cy="773.308" fill="#89b3f4" r="4.993"/></svg></g></svg>