<svg xmlns="http://www.w3.org/2000/svg" viewBox="0 0 2000 2000" width="2000" height="2000"><g transform="translate(853.0 741.0) rotate(0.0 203.5 66.5) scale(1.6750694515896698 1.6640392362935714)"><svg width="242.975" height="79.926" viewBox="0 0 242.975 79.926"><linearGradient id="b" gradientTransform="matrix(1 0 0 -1 0 -3373.061)" gradientUnits="userSpaceOnUse" x1="165.593" x2="100.575" y1="-3384.805" y2="-3432.435"><stop offset=".029" stop-color="#ffbeb6"/><stop offset=".434" stop-color="#fbb5ae"/><stop offset="1" stop-color="#f2a19c"/></linearGradient><linearGradient id="a" gradientTransform="translate(0 -78)" gradientUnits="userSpaceOnUse" x2="167.194" y1="126.331" y2="126.331"><stop offset="0" stop-color="#ffbeb6"/><stop offset="1" stop-color="#f2a19c"/></linearGradient><linearGradient xmlns:xlink="http://www.w3.org/1999/xlink" id="c" x1="117.566" x2="43.673" xlink:href="#a" y1="116.359" y2="216.399"/><linearGradient xmlns:xlink="http://www.w3.org/1999/xlink" id="d" x1="94.344" x2="242.975" xlink:href="#a" y1="100.384" y2="100.384"/><path d="M160.435 42.268s-30.371 23.739-41.781 27.526-38.885-22.156-38.885-22.156L131.594 18.1z" fill="url(#b)"/><path d="M3.957 20.837s54.643 10.545 67.886 5.54 31.59-12.511 44.328-8.507 48.912 25.524 50.95 34.031-39.232 21.52-46.876 19.016S84.07 49.4 63.18 54.4 0 79.926 0 79.926z" fill="url(#a)"/><path d="M75.856 53.4s31.079 23.021 42.8 19.518 10.191-12.011.508-15.514S93.689 39.388 75.856 53.4z" fill="url(#c)"/><path d="M219.956 0s-52.9 18.369-69.712 15.868-22.418-2.5-29.552 1S98.783 28.88 95.217 29.38s4.076 9.508 17.833 4.5 33.147-3.128 48.433 10.884c0 0 58.566-15.387 81.492-13.887z" fill="url(#d)"/></svg></g><g transform="translate(1188.0 114.0) rotate(0.0 271.5 872.0) scale(1.7188385336376384 1.7185076574099805)"><svg width="315.911" height="1014.834" viewBox="0 0 315.911 1014.834"><linearGradient id="f" gradientUnits="userSpaceOnUse" x1="-79.655" x2="41.526" y1="336.238" y2="336.238"><stop offset="0" stop-color="#23286b"/><stop offset=".56" stop-color="#1b205b"/><stop offset="1" stop-color="#151a4f"/></linearGradient><linearGradient id="g" gradientTransform="translate(0 -78)" gradientUnits="userSpaceOnUse" x2="180.401" y1="1057.188" y2="1057.188"><stop offset="0" stop-color="#e94a47"/><stop offset="1" stop-color="#d62929"/></linearGradient><linearGradient id="h" gradientUnits="userSpaceOnUse" x1="-94.974" x2="140.53" y1="861.788" y2="700.354"><stop offset=".129" stop-color="#428dfc"/><stop offset=".999" stop-color="#1d72d8"/></linearGradient><linearGradient id="e" gradientTransform="matrix(-1 0 0 1 4134.966 0)" gradientUnits="userSpaceOnUse" x1="4130.075" x2="3851.335" y1="528.25" y2="472.39"><stop offset="0" stop-color="#23286b"/><stop offset="1" stop-color="#151a4f"/></linearGradient><linearGradient id="i" gradientUnits="userSpaceOnUse" x1="-81.68" x2="24.732" y1="448.827" y2="448.827"><stop offset="0" stop-color="#eee"/><stop offset="1" stop-color="#dce3ea"/></linearGradient><linearGradient id="j" gradientUnits="userSpaceOnUse" x1="7.418" x2="49.68" y1="455.377" y2="455.377"><stop offset="0" stop-color="#e94a47"/><stop offset=".992" stop-color="#d62929"/></linearGradient><linearGradient id="k" gradientTransform="matrix(-.965 -.264 -.264 .965 4687.932 583.037)" gradientUnits="userSpaceOnUse" x1="4463.248" x2="4296.946" y1="988.176" y2="927.24"><stop offset="0" stop-color="#23286b"/><stop offset=".55" stop-color="#212667"/><stop offset="1" stop-color="#151a4f"/></linearGradient><linearGradient id="l" gradientUnits="userSpaceOnUse" x1="131.322" x2="116.729" y1="226.974" y2="172.581"><stop offset="0" stop-color="#ffbeb6"/><stop offset="1" stop-color="#f2a19c"/></linearGradient><linearGradient xmlns:xlink="http://www.w3.org/1999/xlink" id="m" x1="3948.665" x2="4054.735" xlink:href="#e" y1="109.257" y2="109.257"/><path d="M258.608 143.369 137.252 95.195 23.125 0l153.75 50.822z" fill="#151a4f"/><path d="M112.544 221.114s-5.25 74.9-92.306 143c0 0 18.849 84.3 46.7 101.286 0 0 111.29-58.89 61.789-258.322z" fill="url(#f)"/><path d="M154.847 943.544H99.7s-28.781 27.017-59.618 40.231S0 1014.832 0 1014.832h180.4l-25.554-71.283" fill="url(#g)"/><path d="M273.38 943.544h-58.637s-25.288 27.014-56.124 40.229-40.087 31.058-40.087 31.058l180.4-.006z" fill="#e94a47"/><path d="M223.731 526.587c-19.6 86.042-16.3 73.075-26.407 148.616-8.015 59.883-3.534 34.77-6.555 98.126-3.021 63.376 4.828 130.184-35.922 170.174l-55.156.041s1.685-163.989 2.61-218.61c.761-47.409 5.589-102.914 9.186-137.828.2-1.993.472-3.987.822-5.98 4.355-24.742 5.548-33.29 7.665-47.613.227-1.438 12.915-79.751 13.12-81.025 20.862 10.674 16.941 13.389 44.986 16.706 0 0 25.962 5.2 40.718-.743a166.309 166.309 0 0 1 4.418-1.665 58.022 58.022 0 0 0 7.912-3.575c.39 16.317-1.417 37.134-7.397 63.376z" fill="url(#h)"/><path d="M265.675 828.459c-13.3-35.367-25.112-24.053-22.42-52.72 2.671-28.667-3.6-47.223-15.248-77.535-11.632-30.351-38.531-44.676-2.691-144.959 13.356-37.34 17.632-66.356 17.755-88.1-7.849.761-16.4 1.253-25.5 1.294-2.44.982 2.264-1.159 0 0l-91.323-10.213-10.482 71.555a647.221 647.221 0 0 0-2.466 15.33c-6.269 43.012-9.844 95.248-5.385 139.062 4.5 43.832 106.83 261.37 106.83 261.37h58.637s4.856-81.666-7.707-115.084z" fill="#428dfc"/><path d="M112.544 221.114c-6.621 141.421-44.981 379.119-71.993 531.119 0 0 37.2 20 139.61 25.627 100.606 5.533 133.23-12.429 133.23-12.429s12.4-42.871-17.809-89c-31.528-48.144-1.614-76.374-16.375-138.041-5.528-23.091-14.033-35.491-18.979-60.22-10.534-52.662 8.462-82.954-7.3-131.025-22.5-68.593-48.037-124.763-108.476-148.4z" fill="url(#e)"/><path d="m6.039 393.597 28.129-17.177 78.283 129.114-27.098 15.7z" fill="url(#i)"/><path d="m42.256 451.565 27.246-16.466 15.016 24.587-27.457 15.97z" fill="url(#j)"/><path d="M150.051 408s-18.595 26.712-32.525 35.79-10.847 9.884-21.919 2.224-10.62-6.279-21.243-11.195c-9.76-4.517-16.041-5.958-14.453 1.441 1.761 8.2 16.446 6.1 18.358 16.228S61.783 460.057 52 460.81c-16.181 1.247 6.128 41.793 22.7 44.026 20.945 2.821 33.6-25.4 47.829-28.822s51.38-22.039 57.8-22.54-5.937-46.303-30.278-45.474z" fill="#f2a19c"/><path d="M140.4 206.741s17.744 48.867 38.17 83.164c15.859 26.629 13.976 55.16-5.5 83.741-19.336 28.38-44.584 60.722-44.584 60.722l48.765 81.717s26.342-3.586 46.8-35.205 29.06-40.286 45.423-49.571 49.415-47.552 18.9-100.3c-34.415-59.49-40.727-86.04-125.144-137.612z" fill="url(#k)"/><path d="M99.893 182.232s13.649 21.6 12.651 38.882c0 0 19.277 8.309 31.905-17.616l-11.965-25.259z" fill="url(#l)"/><path d="M84.148 111.23s-12.525 21.92-21.473 28.184-2.461 10.067 3.578 10.961c0 0 13.2 48.417 66.231 27.866l16.27-31.505L140.1 117.3l-34.976 8.658z" fill="#ffbeb6"/><path d="M82.053 130.232a9.272 9.272 0 0 1-15.106-6.343c-.138-1.4 2.033-1.881 2.171-.459a7.06 7.06 0 0 0 11.446 5.157c1.124-.862 2.623.773 1.489 1.645z" fill="#1c2868"/><path d="M206.685 197.445c-.349-5.591-16.562-4.35-33.966-12.588a106.805 106.805 0 0 0 32.4 5.471.761.761 0 0 0 0-1.521 103.726 103.726 0 0 1-43.343-9.983 53.081 53.081 0 0 0-20.585-6.206c9.939-1.753 25.969-8.306 37.61-31.331 18.066-35.738-37.7-76.579-98.572-47.912a27.141 27.141 0 0 0 .138 13.523 42.1 42.1 0 0 0 18.774 32.555c5.6 3.621 12.509 6.218 19.2 4.641a19.684 19.684 0 0 0 5.883-2.57 8.609 8.609 0 0 0 3.129-1.81c7.461-6.676 19.242-3.142 14.529 10.6a149.335 149.335 0 0 1-9.812 22.786c1.964 36.916 36.523 55.764 36.523 55.764 31.807-3.537 38.486-25.136 38.092-31.419zm-104.309-57.838a39.448 39.448 0 0 1-19.459-26.148 34.821 34.821 0 0 0 8.312 10.156c11.038 9.423 20.412 16.625 27.622 18.077-4.288 1.674-9.267 1.767-16.475-2.085z" fill="#e94a47"/><path d="M169.177 156.776s45.6-43.9-12.026-82.122c-56.607-37.548-76.92 18.721-76.92 18.721s22.317-.251 52.841 21.728c27.297 19.656 36.105 41.673 36.105 41.673z" fill="url(#m)"/><g fill="#1c2868"><path d="m245.718 198.787-1.843-.081c1.918-43.224-13.54-82.48-13.7-82.871l1.712-.685c.162.395 15.766 40.004 13.831 83.637z"/><path d="M255.551 230.642c-.9-30.072-9.908-42.409-10-42.53l1.476-1.112c.386.514 9.449 12.931 10.368 43.582z"/><path d="M252.925 230.614s-.453-44.767-7.5-45.317-4.346 45.317-4.346 45.317z"/></g></svg></g><g transform="translate(279.0 114.0) rotate(0.0 313.5 872.0) scale(1.686558371865947 1.68736690458153)"><svg width="371.763" height="1033.563" viewBox="0 0 371.763 1033.563"><linearGradient id="n" gradientUnits="userSpaceOnUse" x1="27.672" x2="39.269" y1="179.382" y2="179.382"><stop offset="0" stop-color="#23286b"/><stop offset="1" stop-color="#151a4f"/></linearGradient><linearGradient xmlns:xlink="http://www.w3.org/1999/xlink" id="q" x1="18.714" x2="28.139" xlink:href="#n" y1="232.335" y2="232.335"/><linearGradient xmlns:xlink="http://www.w3.org/1999/xlink" id="r" gradientTransform="matrix(.99822635 -.05953287 .05953287 .99822635 -132.982 182.628)" x1="151.712" x2="164.171" xlink:href="#n" y1="58.034" y2="58.034"/><linearGradient id="s" gradientTransform="matrix(-.999 -.047 -.047 .999 -2742.422 -117.553)" gradientUnits="userSpaceOnUse" x1="-2937.602" x2="-2897.666" y1="198.599" y2="198.599"><stop offset="0" stop-color="#ffbeb6"/><stop offset="1" stop-color="#f2a19c"/></linearGradient><linearGradient id="t" gradientTransform="matrix(-1 0 0 1 4529.079 0)" gradientUnits="userSpaceOnUse" x1="4288.836" x2="4441.019" y1="135.629" y2="135.629"><stop offset=".129" stop-color="#428dfc"/><stop offset=".999" stop-color="#1d72d8"/></linearGradient><linearGradient xmlns:xlink="http://www.w3.org/1999/xlink" id="u" x1="83.693" x2="196.376" xlink:href="#n" y1="117.165" y2="117.165"/><linearGradient xmlns:xlink="http://www.w3.org/1999/xlink" id="v" x1="437.564" x2="144.014" xlink:href="#n" y1="981.23" y2="997.653"/><linearGradient id="o" gradientUnits="userSpaceOnUse" x1="414.304" x2="106.084" y1="652.287" y2="721.067"><stop offset="0" stop-color="#a1c3fc"/><stop offset="1" stop-color="#78a9ef"/></linearGradient><linearGradient xmlns:xlink="http://www.w3.org/1999/xlink" id="w" x1="213.176" x2="0" xlink:href="#o" y1="697.101" y2="697.101"/><linearGradient id="p" gradientUnits="userSpaceOnUse" x1="2.534" x2="200.563" y1="344.499" y2="344.499"><stop offset="0" stop-color="#e94a47"/><stop offset=".992" stop-color="#d62929"/></linearGradient><linearGradient xmlns:xlink="http://www.w3.org/1999/xlink" id="x" x1="122.66" x2="371.763" xlink:href="#p" y1="361.992" y2="361.992"/><path d="m4.154 164.654 123.935-57.96L241.529 0 83.875 62.751z" fill="#151a4f"/><path d="M28.625 221.872c-4.566-43.785 8.758-84.573 8.893-84.98l1.751.582c-.134.4-13.333 40.829-8.811 84.207z" fill="url(#n)"/><path d="M18.783 254.569c-.913-30.893 7.46-43.928 7.817-44.468l1.539 1.015c-.084.129-8.407 13.171-7.512 43.4z" fill="url(#q)"/><path d="M23.275 254.329s-2.229-45.071 4.832-46.047 7.093 45.336 7.093 45.336z" fill="url(#r)"/><path d="M182.762 203.055a70.937 70.937 0 0 0-.871 31.7s-18.407 8.6-39.365-13.132c0 0 5.122-11.661 9.057-23.992l31.179 5.425" fill="url(#s)"/><path d="M211.5 125.25s4.188 18.122 10.8 25.766 11.9 12.293-3.487 19.645c0 0-11.093 49-64.805 28.881 0 0-40.9-19.518-33.877-36.429s35.239-39.8 35.239-39.8l33.75-7.958z" fill="#ffbeb6"/><path d="M217.693 181.915a9.059 9.059 0 0 1-16 .352c-.681-1.2 1.065-2.486 1.754-1.272a6.9 6.9 0 0 0 12.265.047c.658-1.218 2.648-.355 1.984.873z" fill="#1c2868"/><path d="M230.709 74.877c-6.285-2.766-14.387-2.775-22.131 2.706-7.86 5.563-12.095 17.969-12.095 17.969l-8.375-11.681-100.047 48.905s3.224 25.211 20.988 43.653 42.9 24.019 50.833 21c0 0 1.967-13.116-8.092-15.279s-19.268-8.014-14.4-17.946 11.858-.123 19.932-6.179 12.5-22.113 12.5-22.113c8.741 1.186 24.9 2.711 37.165-3.126 11.939-5.681 24.3-13.663 29.563-25.779 8.842-20.358-.25-29.667-5.841-32.13z" fill="url(#t)"/><path d="M101.637 167.411s-47.783-46 12.6-86.053c59.316-39.346 82.137 14.194 82.137 14.194s-20.644-1.432-53.85 19.8c-32.424 20.74-40.887 52.059-40.887 52.059z" fill="url(#u)"/><path d="m177.808 961.249-26.39 72.308 186.31.006s-9.553-18.1-41.4-31.5-61.569-40.811-61.569-40.811l-31.819-13.64-25.133 13.64" fill="url(#v)"/><path d="m31.175 961.211-26.391 72.308 186.311.006s-9.553-18.1-41.4-31.5-61.569-40.811-61.569-40.811l-29.337-13.64-27.614 13.64" fill="#28306d"/><path d="M239.369 702.7c-.031-58.842-26.391-164.853-26.394-164.863-4.356-32.627-12.168-90.454-14.007-99.485l-48.575 5.548-23.305 3.609s-16.526 3.114-28.865 9.5c-4.768 23.07-5.876 51.708 1.915 85.27 22.454 96.8 24.2 83.205 20.746 151.124-3.474 67.917 7.773 45 11.227 116.306 3.454 71.33-20.64 59.076 15.714 151.192l86.929.355s6.985-179.781 4.615-258.556z" fill="url(#o)"/><path d="M200.334 582.573s8.091-133.185 12.842-149.851l-146.647 8.444-8.047 15.287c-1.562-.312 1.443.315 0 0a220.968 220.968 0 0 0 4.286 130.41c35.825 105.6 11.207 100.6-.4 132.557-11.673 31.935-17.912 51.468-15.26 81.652 2.7 30.205-36.2 53.787-43.395 92.81-7.153 39.064-1.764 67.6-1.764 67.6l86.183-.273s99.542-221.232 104.317-267.356c4.3-41.553 4.3-57.753 7.885-111.28z" fill="url(#w)"/><path d="M78.561 457.545a.427.427 0 0 0 .549.241.4.4 0 0 0 .216-.534v-.009a.427.427 0 0 0-.549-.241.426.426 0 0 0-.216.543zm9.417-3.83a.429.429 0 0 0 .551.241.423.423 0 0 0 .241-.549.429.429 0 0 0-.551-.24.434.434 0 0 0-.241.548zm9.443-3.831a.4.4 0 0 0 .5.251.075.075 0 0 0 .025-.009.422.422 0 0 0 .241-.549.429.429 0 0 0-.551-.24.385.385 0 0 0-.233.5.166.166 0 0 0 .018.047zm9.415-3.828a.427.427 0 0 0 .549.24.421.421 0 0 0 .2-.566.433.433 0 0 0-.514-.221.422.422 0 0 0-.235.547zm9.416-3.83a.426.426 0 0 0 .549.24.422.422 0 0 0 .241-.549.427.427 0 0 0-.549-.241.421.421 0 0 0-.241.549zm-7.168 45.791a.415.415 0 0 0 .543-.212v-.006a.411.411 0 0 0-.221-.543.417.417 0 0 0-.544.212v.006a.415.415 0 0 0 .221.543zm3.909-9.323a.456.456 0 0 0 .574-.221.424.424 0 0 0-.249-.54.4.4 0 0 0-.526.171l-.021.047a.416.416 0 0 0 .222.543zm3.937-9.326a.417.417 0 0 0 .544-.212v-.006a.418.418 0 0 0-.206-.562.433.433 0 0 0-.573.2l-.015.04a.422.422 0 0 0 .248.538zm3.909-9.323a.418.418 0 0 0 .545-.212v-.006a.446.446 0 0 0-.225-.571.415.415 0 0 0-.543.212.444.444 0 0 0 .223.572zm30.943 27.925a.429.429 0 0 0 .551.24.386.386 0 0 0 .233-.5l-.021-.047a.413.413 0 0 0-.524-.244.423.423 0 0 0-.241.551zM79.683 435.4a.464.464 0 0 0 .435.428.412.412 0 0 0 .4-.424.422.422 0 0 0-.407-.431.438.438 0 0 0-.429.429zm10.192.047a.5.5 0 0 0 .056.193.58.58 0 0 0 .38.235.412.412 0 0 0 .4-.426.4.4 0 0 0-.374-.429h-.033a.467.467 0 0 0-.372.223.4.4 0 0 0-.058.208zm10.191.046a.417.417 0 0 0 .432.4.4.4 0 0 0 .433-.365v-.038a.443.443 0 0 0-.435-.428.464.464 0 0 0-.432.432zM94.4 471.629a.391.391 0 0 0 .545.039.2.2 0 0 0 .033-.032.383.383 0 0 0 .031-.548.3.3 0 0 0-.026-.025.392.392 0 0 0-.545-.04.322.322 0 0 0-.032.032.384.384 0 0 0-.031.549.2.2 0 0 0 .025.025zm7.22-7.109a.369.369 0 0 0 .468.051h.029a.1.1 0 0 0 .081-.04.4.4 0 0 0 .123-.359.447.447 0 0 0-.121-.242.415.415 0 0 0-.591.582l.011.012zm7.222-7.111a.411.411 0 0 0 .573-.019.38.38 0 0 0 .037-.543.22.22 0 0 0-.031-.03.392.392 0 0 0-.545-.04.498.498 0 0 0-.033.032.414.414 0 0 0-.013.591l.011.011zm7.219-7.137a.391.391 0 0 0 .545.039.2.2 0 0 0 .033-.032.413.413 0 0 0 .013-.59l-.011-.012a.415.415 0 0 0-.588.587zm14.094 36.341a.464.464 0 0 0 .435.428.429.429 0 1 0-.006-.858.457.457 0 0 0-.429.43zm.019-10.11a.416.416 0 0 0 .431.4.4.4 0 0 0 .434-.365v-.038a.444.444 0 0 0-.436-.427.458.458 0 0 0-.431.431zM32.8 428.027c.029 0 .06.021.088.017a.782.782 0 0 0 .875-.67.438.438 0 0 0 0-.051.806.806 0 0 0-.753-.842.641.641 0 0 0-.231 0c-.013.519 0 1.033.021 1.546zm18.632.56a.548.548 0 0 0 .079.362.705.705 0 0 0 .642.456l.033.024a.8.8 0 0 0 .847-.745.787.787 0 0 0-.724-.846.852.852 0 0 0-.877.749zm19.294 1.359a.806.806 0 0 0 .753.842.787.787 0 0 0 .851-.712.8.8 0 0 0-.753-.842.765.765 0 0 0-.847.669.373.373 0 0 0 0 .048zm-17.186 60.5a.8.8 0 0 0 1.106.1l.029-.025a.771.771 0 0 0 .075-1.1.8.8 0 0 0-1.106-.1l-.029.024a.774.774 0 0 0-.075 1.1zM68.1 477.9a.8.8 0 0 0 1.113.094l.023-.019a.777.777 0 0 0 .085-1.112l-.011-.014a.787.787 0 0 0-1.095-.088l-.013.011a.812.812 0 0 0-.1 1.128zm14.59-12.555a.821.821 0 0 0 1.136.074.8.8 0 0 0 .072-1.126.828.828 0 0 0-1.137-.076.779.779 0 0 0-.085 1.113zM97.254 452.8a.817.817 0 0 0 .865.2.473.473 0 0 0 .271-.123.7.7 0 0 0 .231-.4h.029a.8.8 0 0 0-.608-.964.826.826 0 0 0-.715.171.8.8 0 0 0-.073 1.126zm14.589-12.578a.791.791 0 0 0 1.1.114l.009-.008a.814.814 0 0 0 .1-1.129.8.8 0 0 0-1.113-.1.2.2 0 0 0-.021.019.746.746 0 0 0-.106 1.065.181.181 0 0 0 .029.034zm-.226 98.341a.806.806 0 0 0 .754.842.766.766 0 0 0 .847-.67.373.373 0 0 0 0-.047.806.806 0 0 0-.753-.842.785.785 0 0 0-.85.711v.006zm1.32-19.109a.8.8 0 0 0 1.6.112v-.016a.787.787 0 0 0-.725-.845.848.848 0 0 0-.876.749zm1.343-19.14a.787.787 0 0 0 .73.842h.023a.767.767 0 0 0 .848-.669v-.048a.852.852 0 0 0-.757-.87.8.8 0 0 0-.847.743zm1.32-19.114a.8.8 0 0 0 1.6.11v-.01a.8.8 0 0 0-1.6-.121zm1.343-19.139a.789.789 0 0 0 1.57.149v-.047a.781.781 0 0 0-.713-.846h-.011a.806.806 0 0 0-.85.746zM44.666 457.4a.8.8 0 0 0 1.017.493.785.785 0 0 0 .5-1l-.006-.017a.806.806 0 0 0-1.017-.492.785.785 0 0 0-.5 1zM63 451.327a.81.81 0 0 0 1 .525.8.8 0 0 0 .492-1.013.788.788 0 0 0-.989-.5.766.766 0 0 0-.506.97l.006.015zm18.307-6.039a.806.806 0 0 0 1.025.469.782.782 0 0 0 .477-1.007.8.8 0 0 0-1.5.538zm18.309-6.04a.814.814 0 0 0 1.021.492.8.8 0 0 0 .52-1.016.813.813 0 0 0-1.021-.492.825.825 0 0 0-.52 1.016zM74.863 519.76a.791.791 0 0 0 1.061-.316.173.173 0 0 0 .016-.03.789.789 0 0 0-.374-1.061h-.008a.8.8 0 0 0-1.065.323l-.012.023a.811.811 0 0 0 .382 1.065zm8.607-17.15a.791.791 0 0 0 1.06-.316c0-.01.011-.021.015-.031a.787.787 0 0 0-.374-1.061h-.008a.8.8 0 0 0-1.065.323l-.011.023a.81.81 0 0 0 .383 1.066zm8.609-17.121a.822.822 0 0 0 1.073-.375.806.806 0 0 0-.352-1.069.807.807 0 1 0-.721 1.444zm8.6-17.177a.793.793 0 0 0 1.061-.316.229.229 0 0 0 .016-.031.793.793 0 1 0-1.426-.694.749.749 0 0 0 .312 1.024zm8.609-17.121a.822.822 0 0 0 1.073-.374.753.753 0 0 0-.345-1.022.237.237 0 0 0-.032-.015.758.758 0 0 0-1.021.289.442.442 0 0 0-.027.053.785.785 0 0 0 .348 1.067zm38.9 73.979a.813.813 0 0 0 1.021.492.769.769 0 0 0 .5-.978v-.006a.768.768 0 0 0-.934-.541c-.022.006-.043.011-.064.019a.841.841 0 0 0-.518 1.014zm-6.142-18.208a.856.856 0 0 0 1.025.518.8.8 0 0 0-.522-1.506.782.782 0 0 0-.5.988zm-6.141-18.181a.768.768 0 0 0 .953.508.331.331 0 0 0 .041-.014.784.784 0 0 0 .532-.982l-.012-.034a.806.806 0 0 0-1.017-.494.784.784 0 0 0-.5 1zm-6.171-18.2a.814.814 0 0 0 1.021.492.757.757 0 0 0 .507-.952l-.012-.032a.8.8 0 1 0-1.516.492zm-96.1-22.447a.683.683 0 0 0 .127-.534.622.622 0 0 0-.185-.289c.035.253.046.539.058.823zM49.17 444.1a.692.692 0 0 0 .82.523.177.177 0 0 0 .031-.008.7.7 0 0 0 .514-.848.711.711 0 0 0-.849-.509.683.683 0 0 0-.524.816c0 .009.006.019.008.026zm16.8-3.829a.671.671 0 0 0 .784.529.515.515 0 0 0 .068-.015.7.7 0 0 0 .531-.838.709.709 0 0 0-.853-.522.7.7 0 0 0-.532.838zm16.8-3.83a.672.672 0 0 0 .784.53.657.657 0 0 0 .067-.016.722.722 0 0 0 .545-.847.815.815 0 0 0-.88-.511.664.664 0 0 0-.532.779.617.617 0 0 0 .016.065zM58.12 510.9a.717.717 0 0 0 .979-.219.683.683 0 0 0-.2-.956l-.025-.015a.7.7 0 0 0-.957.186.246.246 0 0 0-.022.034.709.709 0 0 0 .224.97zm9.124-14.5a.716.716 0 1 0-.224-.971.686.686 0 0 0 .206.961.081.081 0 0 0 .018.01zm8.832-14.917a.6.6 0 0 0 .289.419.716.716 0 1 0 .081-1.27h-.029a.5.5 0 0 0-.279.267.6.6 0 0 0-.062.58zm9.415-14.083a.716.716 0 1 0 .751-1.219.716.716 0 1 0-.751 1.219zm9.123-14.5a.724.724 0 0 0 .975-.248.714.714 0 0 0-.223-.973.717.717 0 1 0-.752 1.221zm9.124-14.5a.724.724 0 0 0 .975-.248.713.713 0 0 0-.224-.972.717.717 0 1 0-.751 1.22zm25.689 84.023a.759.759 0 0 0 .885.539.681.681 0 0 0 .522-.816.147.147 0 0 0-.008-.028.711.711 0 0 0-.84-.545h-.015a.734.734 0 0 0-.544.846zm-3.876-16.655a.711.711 0 0 0 .852.514.679.679 0 0 0 .522-.815.157.157 0 0 0-.008-.029.712.712 0 0 0-.84-.545h-.015a.721.721 0 0 0-.511.871zm-3.912-16.708a.71.71 0 0 0 .84.544h.015a.664.664 0 0 0 .532-.78.625.625 0 0 0-.016-.062.711.711 0 0 0-.842-.545h-.013a.71.71 0 0 0-.516.842zm-3.905-16.652a.719.719 0 0 0 .874.509.7.7 0 0 0 .522-.842.718.718 0 1 0-1.4.333zm-3.913-16.708a.718.718 0 0 0 .852.542.706.706 0 0 0 .551-.837v-.009a.716.716 0 0 0-.848-.545.7.7 0 0 0-.555.832zm-3.907-16.679a.72.72 0 0 0 .85.545.707.707 0 0 0 .555-.835v-.015a.717.717 0 0 0-1.4.305zm-45.028 20.984a.707.707 0 1 0 1.155-.815.755.755 0 0 0-1-.178.7.7 0 0 0-.15.993zm14.014-9.923a.729.729 0 0 0 1 .18.742.742 0 0 0 .178-1 .721.721 0 0 0-.993-.157l-.009.008a.675.675 0 0 0-.2.946.153.153 0 0 1 .016.022zm14.043-9.9a.727.727 0 0 0 1 .15.692.692 0 0 0 .164-.975l-.015-.019a.705.705 0 0 0-.969-.174.168.168 0 0 0-.033.025.689.689 0 0 0-.164.974.139.139 0 0 1 .015.019zm-.514 74.382a.721.721 0 0 0 .6.806.7.7 0 0 0 .813-.565.751.751 0 0 0-.58-.839.74.74 0 0 0-.838.6zm2.845-16.882a.678.678 0 0 0 .54.8l.037.006a.7.7 0 0 0 .812-.566.748.748 0 0 0-.579-.839.724.724 0 0 0-.81.6zm2.815-16.878a.705.705 0 0 0 1.389.246.679.679 0 0 0-.539-.8l-.037-.006a.681.681 0 0 0-.805.522c0 .014-.006.029-.008.044zm2.816-16.877a.706.706 0 0 0 .577.81.689.689 0 0 0 .61-.168h.029a.777.777 0 0 0 .2-.4.72.72 0 0 0-.6-.806.7.7 0 0 0-.813.564zm2.817-16.878a.74.74 0 0 0 .609.835.72.72 0 0 0 .811-.6 1.016 1.016 0 0 0-.012-.286.605.605 0 0 1-.254-.367.61.61 0 0 0-.339-.155.7.7 0 0 0-.813.563v.006zm53.274 53.927a.678.678 0 0 0 .93.184.467.467 0 0 0 .043-.03.7.7 0 0 0 .187-.984l-.01-.013a.735.735 0 0 0-1-.15.689.689 0 0 0-.163.975s.009.013.015.018zm-10.046-13.954a.72.72 0 0 0 .986.193.693.693 0 0 0 .2-.969.212.212 0 0 0-.029-.038.72.72 0 0 0-.99-.176.693.693 0 0 0-.179.973.03.03 0 0 1 .007.019zm-30.1-41.842a.708.708 0 1 0 1.156-.816.757.757 0 0 0-1.006-.178.7.7 0 0 0-.15.994zm-75.59-15.7a.427.427 0 0 0 .426.428h.009a.457.457 0 0 0 .4-.454.416.416 0 0 0-.832.019v.007zm10.17-.323a.416.416 0 0 0 .431.4.336.336 0 0 0 .3-.155.38.38 0 0 0 .106-.273.416.416 0 0 0-.432-.4.325.325 0 0 0-.316.214.215.215 0 0 0-.084.214zm10.169-.324a.417.417 0 0 0 .833-.023.444.444 0 0 0-.436-.427.457.457 0 0 0-.4.454zm-2.408 39.647a.443.443 0 0 0 .6-.025.433.433 0 0 0-.027-.6.443.443 0 0 0-.6.025.438.438 0 0 0 .027.6zm6.928-7.357a.447.447 0 0 0 .6-.024.438.438 0 0 0-.027-.6.443.443 0 0 0-.6.024.437.437 0 0 0 .027.6zm6.952-7.389a.409.409 0 0 0 .572-.019.387.387 0 0 0 .022-.554c-.016-.015-.031-.03-.049-.044a.423.423 0 0 0-.589.038.406.406 0 0 0 .038.579zm6.928-7.355a.409.409 0 0 0 .572-.019.417.417 0 0 0 .01-.594l-.008-.007a.45.45 0 0 0-.6.024.433.433 0 0 0 .027.6zM86.913 439a.443.443 0 0 0 .6-.025.415.415 0 0 0-.051-.594.434.434 0 0 0-.579.021.44.44 0 0 0 .027.6zm12.281 44.15a.417.417 0 1 0 .4-.427.414.414 0 0 0-.4.427zm-.382-10.085a.442.442 0 0 0 .461.4.411.411 0 0 0 .4-.426.4.4 0 0 0-.4-.4h-.031a.423.423 0 0 0-.43.418.019.019 0 0 0 0 .015zm-.354-10.091a.416.416 0 0 0 .832-.019v-.008a.4.4 0 0 0-.4-.4h-.031a.413.413 0 0 0-.4.424zm-.358-10.091.016.111a.462.462 0 0 0 .416.288.413.413 0 0 0 .4-.426.449.449 0 0 0-.286-.391h-.029a.181.181 0 0 0-.117-.014.4.4 0 0 0-.4.394v.036zm-.378-10.083a.417.417 0 1 0 .4-.428.416.416 0 0 0-.4.428zm18.2 2.395a.448.448 0 0 0 .6-.025.433.433 0 0 0-.027-.6.411.411 0 0 0-.572.019.416.416 0 0 0-.01.594l.008.008zm-7.434-6.893a.443.443 0 0 0 .6-.025.433.433 0 0 0-.027-.6.447.447 0 0 0-.6.025.433.433 0 0 0 .027.6zm-57.568 9.6a.436.436 0 0 0 .549.212.446.446 0 0 0 .208-.572.413.413 0 0 0-.534-.219l-.015.007a.444.444 0 0 0-.208.572zm9.251-4.178a.423.423 0 0 0 .549.212.4.4 0 0 0 .225-.517c0-.009-.008-.019-.013-.028a.391.391 0 0 0-.5-.235.237.237 0 0 0-.054.023.4.4 0 0 0-.218.533l.006.012zm9.25-4.18a.405.405 0 0 0 .517.227.2.2 0 0 0 .033-.015.386.386 0 0 0 .233-.5.338.338 0 0 0-.022-.047.414.414 0 0 0-.533-.22l-.019.011a.416.416 0 0 0-.212.545zm9.255-4.15a.468.468 0 0 0 .578.208.474.474 0 0 0 .208-.571.458.458 0 0 0-.578-.208.444.444 0 0 0-.208.571zm.755 39.36a.457.457 0 0 0 .544-.246.406.406 0 0 0-.232-.532l-.017-.006a.405.405 0 0 0-.528.2.391.391 0 0 0-.015.041.423.423 0 0 0 .248.538zM83 465.3a.454.454 0 0 0 .543-.246.433.433 0 0 0-.248-.539.4.4 0 0 0-.534.187.271.271 0 0 0-.013.03.423.423 0 0 0 .231.559zm3.543-9.474a.4.4 0 0 0 .526-.2c0-.014.011-.029.015-.042a.423.423 0 0 0-.249-.539.454.454 0 0 0-.543.246.4.4 0 0 0 .231.531.06.06 0 0 0 .02.008zm3.544-9.446a.4.4 0 0 0 .526-.2.361.361 0 0 0 .016-.042.423.423 0 0 0-.249-.539.456.456 0 0 0-.543.246.424.424 0 0 0 .25.539zm3.547-9.444a.427.427 0 0 0 .543-.251.414.414 0 0 0-.25-.532.425.425 0 0 0-.544.246.451.451 0 0 0 .251.537zm24.491 36.62a.411.411 0 0 0 .533.219l.016-.007a.4.4 0 0 0 .216-.534v-.009a.391.391 0 0 0-.5-.235.237.237 0 0 0-.054.023.4.4 0 0 0-.216.533zm-4.238-9.191a.444.444 0 0 0 .578.209.4.4 0 0 0 .183-.542.392.392 0 0 0-.5-.234.278.278 0 0 0-.054.022.4.4 0 0 0-.215.534v.011zm-4.239-9.188a.458.458 0 0 0 .578.208.445.445 0 0 0 .208-.571.44.44 0 0 0-.589-.173.424.424 0 0 0-.2.536zm-4.209-9.192a.413.413 0 0 0 .534.219l.017-.007a.441.441 0 0 0 .239-.349.305.305 0 0 0-.031-.225.436.436 0 0 0-.549-.212.447.447 0 0 0-.2.2v.029a.308.308 0 0 0-.012.346zM101.2 436.8a.45.45 0 0 0 .549.212.422.422 0 0 0 .212-.565v-.006a.413.413 0 0 0-.534-.22.085.085 0 0 0-.017.008.448.448 0 0 0-.206.571zm9.555 3.913a.5.5 0 0 0 .672-.147.486.486 0 0 0-.152-.666.5.5 0 0 0-.672.147.487.487 0 0 0 .152.666zm-75.727-4.8a.481.481 0 0 0 .569.352.5.5 0 0 0 .381-.568.49.49 0 0 0-.593-.35.454.454 0 0 0-.358.539zm11.339-2.458a.48.48 0 0 0 .569.352.5.5 0 0 0 .381-.568.49.49 0 0 0-.593-.35.443.443 0 0 0-.366.511c0 .017.01.036.013.053zM57.711 431a.48.48 0 0 0 .569.352.516.516 0 0 0 .381-.568.49.49 0 0 0-.593-.35h-.006a.443.443 0 0 0-.366.511c.006.017.01.036.015.053zm.449 37.8a.5.5 0 0 0 .673-.149.487.487 0 0 0-.153-.666.46.46 0 0 0-.631.126l-.012.017a.46.46 0 0 0 .1.653.11.11 0 0 0 .025.019zm6.252-9.7a.516.516 0 0 0 .622-.085c.025-.032.052-.036.048-.065a.487.487 0 0 0-.152-.666.5.5 0 0 0-.673.15.49.49 0 0 0 .155.666zm6.249-9.7a.5.5 0 0 0 .672-.147.486.486 0 0 0-.152-.666.45.45 0 0 0-.464-.023c-.056.008-.081.04-.11.044l-.1.128a.487.487 0 0 0 .152.664zm6.251-9.7a.461.461 0 0 0 .63-.123l.014-.021a.46.46 0 0 0-.1-.652l-.025-.018a.5.5 0 0 0-.673.15.487.487 0 0 0 .152.664zm22.966 47.08a.446.446 0 0 0 .512.365l.056-.013a.474.474 0 0 0 .354-.564.525.525 0 0 0-.572-.381.482.482 0 0 0-.35.593zm-2.538-11.255a.491.491 0 0 0 .592.35h.006a.471.471 0 0 0 .352-.564.487.487 0 1 0-.95.216zm-2.485-11.289a.452.452 0 0 0 .5.394.429.429 0 0 0 .073-.014.47.47 0 0 0 .353-.564.525.525 0 0 0-.572-.38.474.474 0 0 0-.353.564zm-2.51-11.257a.452.452 0 0 0 .5.394.555.555 0 0 0 .073-.013.471.471 0 0 0 .353-.564.5.5 0 0 0-.572-.38.473.473 0 0 0-.353.563zm-2.508-11.256a.45.45 0 0 0 .5.393.428.428 0 0 0 .073-.013.484.484 0 0 0 .395-.564.492.492 0 0 0-.574-.388.485.485 0 0 0-.4.564zm-41.646 8.954a.469.469 0 0 0 .649.111.467.467 0 0 0 .149-.654.486.486 0 0 0-.667-.146l-.025.017a.488.488 0 0 0-.106.672zm9.517-6.593a.447.447 0 0 0 .612.138.265.265 0 0 0 .039-.026.451.451 0 0 0 .154-.626.119.119 0 0 0-.016-.023.515.515 0 0 0-.682-.136.5.5 0 0 0-.107.673zm9.52-6.562a.471.471 0 0 0 .649.112.477.477 0 0 0 .147-.663.049.049 0 0 1-.01-.015.492.492 0 0 0-.68-.106.472.472 0 0 0-.108.668zm9.517-6.592a.448.448 0 0 0 .612.138.27.27 0 0 0 .039-.027.449.449 0 0 0 .154-.626c0-.008-.01-.015-.015-.023a.478.478 0 1 0-.79.538zm-.669 50.549a.62.62 0 0 0 .185.089.466.466 0 0 0 .547-.37v-.019a.487.487 0 0 0-.366-.551h-.029a.466.466 0 0 0-.547.371v.019a.435.435 0 0 0 .21.457zm1.824-11.818a.461.461 0 0 0 .364.55.51.51 0 0 0 .583-.365.523.523 0 0 0-.4-.575.48.48 0 0 0-.551.39zm2.011-11.327a.468.468 0 0 0 .381.545h.014a.467.467 0 0 0 .547-.371v-.019a.469.469 0 0 0-.384-.545h-.011a.469.469 0 0 0-.547.371zm2.007-11.355a.481.481 0 0 0 .395.549.448.448 0 0 0 .545-.31.5.5 0 0 0-.354-.6.486.486 0 0 0-.582.358zm2.031-11.186a.649.649 0 0 1 .217.314.645.645 0 0 0 .185.089.469.469 0 0 0 .547-.371v-.019a.468.468 0 0 0-.381-.545h-.014a.467.467 0 0 0-.547.371v.019a.3.3 0 0 0-.007.144zm35.471 36.528a.485.485 0 0 0 .669.119.466.466 0 0 0 .121-.656.458.458 0 0 0-.622-.161.3.3 0 0 0-.033.021.492.492 0 0 0-.135.677zm-6.642-9.463a.448.448 0 0 0 .612.139.27.27 0 0 0 .039-.027.451.451 0 0 0 .154-.626l-.015-.023a.486.486 0 0 0-.663-.149.466.466 0 0 0-.152.65.374.374 0 0 0 .025.036zm-6.668-9.458a.471.471 0 0 0 .649.129c.009-.007.021-.013.031-.021a.476.476 0 0 0 .088-.675.494.494 0 0 0-.66-.106.506.506 0 0 0-.108.673zm-6.67-9.46a.489.489 0 0 0 .673.113.472.472 0 0 0 .1-.666.488.488 0 0 0-.642-.119.514.514 0 0 0-.135.676zm-6.64-9.464a.471.471 0 0 0 .649.128l.031-.02a.465.465 0 0 0 .112-.646.509.509 0 0 0-.682-.136.5.5 0 0 0-.11.674zm-58.214 16.9a.814.814 0 0 0 1.124.178l.025-.019a.808.808 0 0 0 .188-1.139.842.842 0 0 0-1.155-.189.857.857 0 0 0-.182 1.169zm16.079-11.635a.821.821 0 0 0 1.132.2.1.1 0 0 1 .02-.013.808.808 0 0 0 .183-1.134.841.841 0 0 0-1.155-.19.829.829 0 0 0-.185 1.141zm15.983-11.881a.607.607 0 0 0 .126.269.674.674 0 0 0 .354.267.8.8 0 0 0 .961-1.209l-.007-.01a.818.818 0 0 0-1.122-.208c-.009.008-.021.013-.03.021a.744.744 0 0 0-.282.87zm-8.852 101.2a.851.851 0 0 0 .704.94.823.823 0 0 0 .944-.672.84.84 0 0 0-.709-.935.821.821 0 0 0-.944.672zm3.079-19.52a.81.81 0 0 0 .67.937h.01a.812.812 0 0 0 .94-.649v-.023a.811.811 0 0 0-.669-.937.823.823 0 0 0-.953.657v.013zm3.049-19.516a.84.84 0 0 0 .709.935.824.824 0 0 0 .927-.7.814.814 0 0 0-.713-.91.824.824 0 0 0-.925.683zM67 470.514a.823.823 0 1 0 .944-.673.811.811 0 0 0-.94.649v.024zM70.05 451a.84.84 0 0 0 .709.935.784.784 0 0 0 .91-.623c0-.015.005-.03.007-.047a.776.776 0 0 0-.605-.925.654.654 0 0 0-.075-.013.825.825 0 0 0-.946.673zm3.079-19.52a.823.823 0 0 0 1.624.267.8.8 0 0 0-.646-.933h-.034a.8.8 0 0 0-.936.626.354.354 0 0 0-.008.045zm66.3 78.789a.877.877 0 0 0 1.181.184.8.8 0 0 0 .164-1.13l-.008-.009a.816.816 0 0 0-1.121-.208c-.009.007-.021.013-.031.02a.834.834 0 0 0-.185 1.143zm-11.745-15.989a.838.838 0 0 0 1.154.186.8.8 0 0 0 .189-1.134l-.006-.007a.815.815 0 0 0-1.121-.209.188.188 0 0 1-.031.021.824.824 0 0 0-.185 1.143zm-11.746-15.98a.841.841 0 0 0 1.152.187.856.856 0 0 0 .181-1.169.812.812 0 0 0-1.121-.178l-.025.019a.8.8 0 0 0-.2 1.128l.009.013zm-11.745-15.987a.842.842 0 0 0 1.152.187.864.864 0 0 0 .181-1.169.843.843 0 0 0-1.169-.142.805.805 0 0 0-.164 1.124zm-11.775-15.988a.815.815 0 0 0 1.124.177l.025-.019a.81.81 0 0 0 .186-1.141.842.842 0 0 0-1.152-.189.858.858 0 0 0-.183 1.172zm-57.073-15.151a.794.794 0 0 0 .943.592l.034-.008a.8.8 0 0 0 .617-.957v-.013a.859.859 0 0 0-1.01-.608.8.8 0 0 0-.585.981v.013zm19.342-4.634a.82.82 0 0 0 .975.615l.034-.008a.78.78 0 0 0 .594-.938c0-.01-.006-.019-.008-.031a.817.817 0 0 0-.975-.611.8.8 0 0 0-.622.958s0 .011 0 .015zm-1.52 29.96a.821.821 0 0 0 1.129-.212l.019-.03a.841.841 0 0 0-.275-1.138.829.829 0 0 0-1.131.246.272.272 0 0 0-.016.025.811.811 0 0 0 .274 1.109zm10.38-16.846a.829.829 0 0 0 1.132-.25c0-.008.01-.013.014-.021a.767.767 0 0 0-.264-1.052c0-.028 0-.028-.037-.053a.8.8 0 0 0-1.067.2l-.048.065a.783.783 0 0 0 .243 1.092zm33.4 79.365a.881.881 0 0 0 1.01.608.824.824 0 0 0 .582-1 .812.812 0 0 0-.964-.615h-.017a.824.824 0 0 0-.611 1zm-4.7-19.236a.836.836 0 0 0 1 .61.8.8 0 0 0 .586-.967.816.816 0 0 0-.975-.611.8.8 0 0 0-.622.957v.013zm-4.7-19.2a.812.812 0 0 0 .963.615h.018a.826.826 0 1 0-.981-.611zm-4.7-19.208a.819.819 0 0 0 1 .577.8.8 0 0 0 .591-.965.818.818 0 1 0-1.589.388zm-4.73-19.23a.837.837 0 0 0 1.006.609.843.843 0 0 0 .608-1 .815.815 0 0 0-.984-.585l-.021.006a.819.819 0 0 0-.613.971zm30.1 2.465a.818.818 0 0 0 1.114-.261v-.005a.832.832 0 0 0-1.416-.873.807.807 0 0 0 .27 1.121.229.229 0 0 0 .029.018zM91.18 434.266a.827.827 0 1 0 .868-1.408.827.827 0 0 0-1.125.272c0 .01-.011.017-.015.027a.808.808 0 0 0 .272 1.109zm-56.767-9.493a.808.808 0 0 0 .936.647h.021a.781.781 0 0 0 .655-.9.421.421 0 0 0-.009-.049.806.806 0 0 0-.936-.647h-.02a.813.813 0 0 0-.647.947zm13 19.366a.851.851 0 0 0 1.148-.242.8.8 0 0 0-.243-1.113.791.791 0 0 0-1.092.163c-.012.015-.023.032-.033.047a.811.811 0 0 0 .214 1.141h.006zm11.029-16.333a.833.833 0 0 0 1.136-.263.8.8 0 0 0-.231-1.092.826.826 0 0 0-1.137.189l-.017.025a.843.843 0 0 0 .249 1.141zm26.442 97.549a.816.816 0 0 0 .984.593.8.8 0 0 0 .6-.967.815.815 0 0 0-1.587.374zm-3.874-19.317a.829.829 0 0 0 1.63-.306.88.88 0 0 0-.989-.668.839.839 0 0 0-.641.974zm-3.878-19.319a.83.83 0 0 0 .975.641.816.816 0 0 0 .655-.95.826.826 0 0 0-.956-.643.843.843 0 0 0-.674.952zM73.285 467.4a.79.79 0 0 0 .9.653.435.435 0 0 0 .052-.01.809.809 0 1 0-.3-1.589.8.8 0 0 0-.655.933v.013zm-3.876-19.319a.808.808 0 0 0 .936.647h.021a.472.472 0 0 0 .243-.119c.029 0 .052-.036.11-.044a.764.764 0 0 0 .293-.785.815.815 0 0 0-.95-.645.8.8 0 0 0-.657.933v.017zm-3.876-19.318a.663.663 0 0 0 .262.422c.008.057.069.078.129.1a.76.76 0 0 0 .566.123.8.8 0 0 0 .649-.929v-.017l-.008-.057a.75.75 0 0 0-.48-.536.851.851 0 0 0-.468-.051.8.8 0 0 0-.649.929.053.053 0 0 0-.001.014zm56.154 29.308a.85.85 0 0 0 1.148-.242.8.8 0 0 0-.243-1.112.789.789 0 0 0-1.092.164.463.463 0 0 0-.031.046.812.812 0 0 0 .214 1.141zm-16.818-11.432a.611.611 0 0 0 .254.367c0 .028.037.053.07.076a.826.826 0 0 0 1.136-.19l.018-.024a.808.808 0 0 0-.114-1.016.279.279 0 0 0-.133-.125.84.84 0 0 0-.651-.112v.029a.656.656 0 0 0-.478.293.776.776 0 0 0-.106.7zM88.7 436.094a.79.79 0 0 0 1.091-.163.814.814 0 0 0 .033-.048.587.587 0 0 0 .109-.244.612.612 0 0 0 0-.4.813.813 0 0 0-.329-.5.85.85 0 0 0-1.148.242.805.805 0 0 0 .242 1.113zm-41.765-7.268a.833.833 0 0 0 1.15.2.8.8 0 0 0 .224-1.105.831.831 0 0 0-1.129-.263l-.031.019a.827.827 0 0 0-.214 1.147zm8.274 27.6a.834.834 0 0 0 1.628.346l.006-.024a.833.833 0 0 0-1.634-.322zm3.859-19.312a.832.832 0 0 0 1.633.322.807.807 0 0 0-.653-.942.835.835 0 0 0-.98.62zm59.244 63.941a.844.844 0 0 0 1.156.216.822.822 0 0 0-.877-1.389l-.038.023a.814.814 0 0 0-.253 1.135.079.079 0 0 1 .012.015zm-11.025-16.4a.838.838 0 0 0 1.148.217.821.821 0 0 0-.869-1.391l-.038.023a.812.812 0 0 0-.251 1.135zm-11.025-16.4a.836.836 0 0 0 1.148.216.8.8 0 0 0 .225-1.119.83.83 0 0 0-1.131-.247.814.814 0 0 0-.252 1.135.049.049 0 0 1 .01.015zm-11.023-16.4a.853.853 0 0 0 1.156.216.8.8 0 0 0 .217-1.118.834.834 0 0 0-1.142-.242.8.8 0 0 0-.247 1.122.153.153 0 0 0 .016.022zm-11.025-16.4a.853.853 0 0 0 1.155.216.8.8 0 0 0 .218-1.119.819.819 0 0 0-1.121-.223h-.006a.838.838 0 0 0-.246 1.122zm41.426 6.081a.622.622 0 1 0-.345-.811.635.635 0 0 0 .345.811zm-13.88-5.531a.641.641 0 0 0 .79-.336.609.609 0 0 0-.326-.805l-.019-.007a.6.6 0 0 0-.784.323l-.006.014a.614.614 0 0 0 .339.81zM32.77 425.4a.471.471 0 0 0 .194-.055.591.591 0 0 0 .33-.774l-.006-.015a.542.542 0 0 0-.512-.359l-.006 1.2zm6.475 25.666a.623.623 0 1 0 .472-1.153.606.606 0 0 0-.785.324l-.005.013a.631.631 0 0 0 .318.816zm5.555-13.788a.6.6 0 0 0 .784-.324l.006-.013a.615.615 0 0 0-.337-.81h-.008a.629.629 0 0 0-.793.386.611.611 0 0 0 .348.761zm40.462 54.092a.617.617 0 0 0 .8.327l.025-.011a.611.611 0 0 0 .322-.789.6.6 0 0 0-.761-.345.889.889 0 0 0-.062.027.613.613 0 0 0-.323.791zm-5.9-13.63a.64.64 0 0 0 .824.318.626.626 0 0 0 .318-.815.616.616 0 0 0-.8-.328l-.025.012a.623.623 0 0 0-.318.813zm-5.906-13.659a.641.641 0 0 0 .824.318.628.628 0 0 0 .318-.816.643.643 0 0 0-.825-.318.626.626 0 0 0-.317.816zm-5.907-13.658a.6.6 0 0 0 .773.331l.023-.009a.607.607 0 0 0 .35-.791.647.647 0 0 0-.828-.346.6.6 0 0 0-.326.8.065.065 0 0 1 .008.017zm-5.907-13.66a.578.578 0 0 0 .734.347.727.727 0 0 0 .062-.025.569.569 0 0 0 .345-.736l-.023-.053a.578.578 0 0 0-.734-.346.57.57 0 0 0-.062.024.589.589 0 0 0-.327.774zm-28.663-.083a.573.573 0 0 0 0-.6 4.032 4.032 0 0 0 0 .6zm9.492-10.454a.6.6 0 0 0 .845.017.139.139 0 0 0 .021-.021.592.592 0 0 0 0-.85l-.007-.007a.58.58 0 0 0-.811-.049.541.541 0 0 0-.054.053.57.57 0 0 0-.037.817.526.526 0 0 0 .041.04zm11.069 63.615a.629.629 0 0 0 .634.6.648.648 0 0 0 .605-.627.616.616 0 0 0-.63-.6.591.591 0 0 0-.605.581.338.338 0 0 0 0 .045zm-.405-29.7a.6.6 0 0 0 .59.6h.042a.588.588 0 0 0 .609-.564v-.034a.662.662 0 0 0-.638-.63.613.613 0 0 0-.6.619v.007zm-.213-14.835a.615.615 0 0 0 .628.6.593.593 0 0 0 .605-.581.339.339 0 0 0 0-.045.605.605 0 0 0-.6-.606.654.654 0 0 0-.629.63zm-.187-14.836a.569.569 0 0 0 .4.575h.029a.537.537 0 0 0 .206.03.591.591 0 0 0 .6-.58.346.346 0 0 0 0-.046.611.611 0 0 0-.62-.6h-.011a.568.568 0 0 0-.457.235.66.66 0 0 0-.148.392zm53.765 37.94a.6.6 0 0 0 .846.017.207.207 0 0 0 .021-.021.6.6 0 0 0 .019-.859l-.029-.028a.6.6 0 0 0-.84.007l-.021.023a.593.593 0 0 0 0 .85.028.028 0 0 0 .008.011zm-10.728-10.369a.635.635 0 0 0 .886-.032.618.618 0 0 0-.005-.859.669.669 0 0 0-.894.007.655.655 0 0 0 .009.888zm-10.7-10.4a.6.6 0 0 0 .844.017l.021-.021a.619.619 0 0 0-.875-.876.6.6 0 0 0-.017.853.344.344 0 0 0 .028.026zM74.348 437.27a.617.617 0 1 0-.025-.874.6.6 0 0 0 .016.865zm-39.295-13.9a.359.359 0 0 0 .477-.093.336.336 0 0 0-.123-.466.331.331 0 1 0-.354.559zm14.679 33.74a.349.349 0 0 0 .387.291.34.34 0 0 0 .293-.386.346.346 0 0 0-.393-.287h-.023a.341.341 0 0 0-.264.382zm-1.41-7.968a.326.326 0 0 0 .374.265h.009a.3.3 0 0 0 .272-.335.354.354 0 0 0-.008-.045.331.331 0 0 0-.362-.295.1.1 0 0 0-.025 0 .368.368 0 0 0-.26.41zm-1.416-8a.333.333 0 0 0 .362.3.1.1 0 0 0 .025 0 .344.344 0 0 0 .26-.407.328.328 0 0 0-.377-.267.325.325 0 0 0-.272.371v.012zm-1.412-7.97a.326.326 0 0 0 .374.265h.009a.34.34 0 0 0 .264-.38.328.328 0 0 0-.381-.263.324.324 0 0 0-.268.374v.006zm-1.443-8a.374.374 0 0 0 .416.288.34.34 0 0 0-.123-.668.337.337 0 0 0-.293.38zm34.824 13.91a.322.322 0 0 0 .445-.051l.008-.01a.351.351 0 0 0-.067-.478.356.356 0 0 0-.478.092.317.317 0 0 0 .091.445zm-6.684-4.647a.321.321 0 0 0 .443-.082l.006-.009a.35.35 0 0 0-.068-.477.356.356 0 0 0-.478.093.325.325 0 0 0 .076.459.062.062 0 0 0 .021.016zm-6.691-4.669a.322.322 0 0 0 .443-.081l.006-.01a.3.3 0 0 0-.027-.4c0-.029-.008-.057-.037-.053-.032-.025-.059-.021-.092-.046a.311.311 0 0 0-.389.11.326.326 0 0 0 .075.46.092.092 0 0 0 .021.017zm-30.9 14.54a.338.338 0 0 0 .258.4.373.373 0 0 0 .426-.259.339.339 0 0 0-.258-.4.387.387 0 0 0-.426.259zm1.77-7.915a.35.35 0 0 0 .675.176.3.3 0 0 0 .009-.038.339.339 0 0 0-.258-.4.384.384 0 0 0-.426.258zm1.775-7.887a.336.336 0 0 0 .258.394.388.388 0 0 0 .426-.258.339.339 0 0 0-.259-.395.328.328 0 0 0-.412.2.245.245 0 0 0-.015.055zm25.573 18.916a.33.33 0 0 0 .447.112.339.339 0 0 0 .106-.473.322.322 0 0 0-.437-.118l-.012.008a.341.341 0 0 0-.104.471zm-4.4-6.848a.346.346 0 0 0 .472.11h.006a.367.367 0 0 0 .106-.473.378.378 0 0 0-.478-.108.342.342 0 0 0-.106.475zm-4.4-6.848a.345.345 0 0 0 .472.11h.006a.339.339 0 0 0 .106-.473.374.374 0 0 0-.478-.107.366.366 0 0 0-.106.474zm-4.371-6.851a.346.346 0 0 0 .472.11h.006a.33.33 0 0 0 .082-.464.3.3 0 0 0-.4-.114.5.5 0 0 0-.045.03.3.3 0 0 0-.131.411.082.082 0 0 0 .018.036zm8.761 43.34a.559.559 0 0 0 .767.157h.006a.54.54 0 0 0 .142-.759.561.561 0 0 0-.734-.163.537.537 0 0 0-.2.742.167.167 0 0 1 .023.023zm-7.2-11.392a.526.526 0 0 0 .7.21c.015-.008.028-.017.044-.027a.536.536 0 0 0 .2-.742.294.294 0 0 0-.017-.026.573.573 0 0 0-.776-.182.533.533 0 0 0-.166.746.148.148 0 0 0 .013.021zm-7.228-11.359a.583.583 0 0 0 .777.181.552.552 0 0 0 .179-.768.576.576 0 0 0-.775-.181.568.568 0 0 0-.181.768zm-7.2-11.365a.611.611 0 0 0 .777.182.579.579 0 0 0 .181-.768.557.557 0 0 0-.754-.2l-.023.013a.558.558 0 0 0-.181.768zm36.89 10.536a.565.565 0 0 0 .78-.125.556.556 0 0 0-.884-.672l-.008.01a.573.573 0 0 0 .112.787zm-11.249-8.152a.562.562 0 0 0 1.015.235.65.65 0 0 0 .091-.384c0-.028 0-.028-.037-.053a.472.472 0 0 0-.192-.346.578.578 0 0 0-.788.136.678.678 0 0 0-.089.412zM52.5 431.075a.515.515 0 0 0 .629-.028h.029c.056-.007.106-.072.129-.1a.545.545 0 0 0-.125-.772.06.06 0 0 0-.015-.009.611.611 0 0 0-.761.132.574.574 0 0 0 .114.785zM41.477 423.3a.58.58 0 0 0 .788-.137.573.573 0 0 0-.138-.783.579.579 0 0 0-.788.136.572.572 0 0 0 .138.784z" fill="#fff" opacity=".86"/><path d="M146.06 216.165s-31.393 15.285-63.3 55.706-26.344 57.043-43.863 80.981S-8.3 401.014 6.576 440.663c0 0 85.833 58.085 193.987 18.158l-20.794-233.6a189.539 189.539 0 0 0-33.709-9.056z" fill="url(#p)"/><path d="M179.767 225.219s14.732 62.143 37.077 99.516 33.672 48.237 71.463 51.753c29.5 2.743 56.229 3.754 56.229 3.754l27.227 122.481s-41.821 13.382-73.419-5.555c-35.537-21.3-52.879-14.527-73.423-11.331s-68.119-1.3-88.8-64.264-17.548-117.032 9.538-204.9" fill="url(#x)"/></svg></g></svg>