<svg enable-background="new 0 0 1793.596 1491.592" height="1492" viewBox="0 0 1793.596 1491.592" width="1794" xmlns="http://www.w3.org/2000/svg" xmlns:xlink="http://www.w3.org/1999/xlink"><clipPath id="a"><path d="m754.007 32.611c-16.409-6.305-40.547-6.156-60.868 7.77-28.898-64.896-116.732-42.386-122.756 10.317-67.404-39.774-134.909 38.454-102.821 91.873 11.779 19.615 32.37 61.105 27.216 97.366 31.798 10.088 96.911 77.161 96.911 77.161s116.223-146.022 165.873-167.711c61.979-27.089 39.732-100.131-3.555-116.776z"/></clipPath><clipPath id="b"><path d="m834.213 346.472c4.155 18.368-2.949 39.122-20.903 52.886-46.747 35.832-115.746 29.885-115.746 29.885s.632 62.734 14.068 121.865c0 0-116.625 157.919-231.846-19.265 0 0 23.868-72.856 47.536-164.226-36.55.328-97.455-29.281-95.627-79.136 1.047-28.437 27.247-55.294 57.182-51.127 29.072 4.049 42.064 19.21 68.093 40.46 24.15 19.724 28.408 6.094 38.417-23.377 8.885-26.16 24.662-50.223 36.98-64.009 27.838-31.18 85.926-40.139 124.999-41.642 4.172 29.232 10.273 58.155 18.264 86.581 13.799 49.95 48.889 68.238 58.583 111.105z"/></clipPath><clipPath id="c"><path d="m1768.855 1406.463c-33.823 0-326.461-1.556-367.969-2.097 0-.013 0-.013-.014-.026-60.153-.706-13.044-230.025 21.89-216.404 159.242 59.077 239.599 117.377 350.415 181.393 35.319 23.062 18.79 37.134-4.322 37.134z"/></clipPath><clipPath id="d"><path d="m1087.339 1073.663c65.983 5.507 293.12 93.591 374.256 129.343-38.624 52.949-66.433 157.048-60.708 201.36-370.151 1.48-585.232 32.765-672.499-86.542-88.405-120.862 265.102-251.993 358.951-244.161z"/></clipPath><clipPath id="e"><path d="m728.387 1317.824c-87.406-95.37-144.673-739.367 26.703-722.452 167.439 16.527 287.99 262.471 345.342 535.67 20.03 95.416-39.772 280.658-128.539 276.098-2.728-.14-3.986-.009-6.472-.344-26.181-3.523-52.359-25.181-86.748-24.537-53.844 1.008-107.912-18.201-150.286-64.435z"/></clipPath><clipPath id="f"><path d="m967.506 1406.022c-112.174 42.094-426.558 88.273-655.439 27.395-98.27-26.138-5.96-744.747 126.81-869.6 8.545-10.43 29.193-33.084 38.223-49.252 46.721 61.04 167.982 89.872 187.539 83.253 22.049-7.463 46.82-46.391 46.82-46.391 12.993 11.043 30.112 24.743 44.455 42.995 186.996 237.958 231.583 678.497 211.592 811.6z"/></clipPath><clipPath id="g"><path d="m942.91 952.764c20.471-13.091 37.485-26.573 47.126-39.501 38.941-52.221 38.058-75.127 57.641-86.863 21.033-12.62 35.921 32.137 16.589 76.961 28.866-7.306 63.327-50.961 83.351-19.385 5.727 9.031 2.747 25.555 2.219 26.729.013.013 0 .013 0 .026 16.407 6.855 18.046 26.654 10.879 47.737 11.313 14.783 9.157 30.125-6.312 53.957 8.61 13.075-.798 29.387-10.899 43.684-20.223 28.621-59.853 64.038-103.53 98.194"/></clipPath><clipPath id="h"><path d="m1015.987 1173.652c-20.734 15.588-56.329 42.32-77.084 57.955-45.768-60.87-90.259-149.17-114.399-218.974 29.646-14.599 57.343-25.506 85.903-41.513 22.843 70.183 61.297 143.614 105.58 202.532z"/></clipPath><clipPath id="i"><path d="m967.506 1406.022c-112.174 42.094-426.558 88.273-655.439 27.395-98.27-26.138-5.96-744.747 126.81-869.6 8.545-10.43 29.193-33.084 38.223-49.252 46.721 61.04 167.982 89.872 187.539 83.253 22.049-7.463 46.82-46.391 46.82-46.391 12.993 11.043 30.112 24.743 44.455 42.995 186.996 237.958 231.583 678.497 211.592 811.6z"/></clipPath><clipPath id="j"><path d="m467.672 1094.56c44.759-5.397 181.568-21.232 300.611-58.916 3.424 37.684 46.128 168.177 94.267 239.679-164.692 131.809-571.768 314.171-763.348 153.087-127.9-107.539 165.209-309.342 368.47-333.85z"/></clipPath><path d="m753.809 32.011c-16.409-6.305-40.548-6.155-60.869 7.771-28.897-64.896-116.731-42.386-122.756 10.315-67.405-39.774-134.911 38.45-102.822 91.874 11.779 19.613 32.37 61.104 27.217 97.366 31.797 10.088 96.909 77.16 96.909 77.16s116.224-146.022 165.873-167.711c61.98-27.089 39.733-100.129-3.552-116.775z" fill="#5b2448"/><path d="m813.309 399.354c-46.745 35.826-115.747 29.873-115.747 29.873.83 51.046 7.902 92.7 14.07 121.882-16.934 105.593-211.409 60.787-234.532-36.54 0 0 26.56-55.592 50.229-146.962-36.556.327-97.462-29.281-95.635-79.127 1.048-28.437 27.251-55.294 57.187-51.134 29.066 4.048 42.066 19.219 68.081 40.466 24.159 19.721 28.41 6.089 38.422-23.379 8.89-26.165 24.665-50.225 36.985-64.009 27.83-31.184 85.924-40.137 124.988-41.649 4.175 29.235 10.279 58.162 18.272 86.592 13.796 49.946 48.888 68.231 58.587 111.104 4.151 18.363-2.951 39.118-20.907 52.883z" fill="#f4ada2"/><g clip-path="url(#a)"><path d="m664.868 79.379c1.594.123 3.028-.968 3.335-2.537 6.843-34.953 42.792-47.235 43.156-47.36 1.661-.523 2.583-2.293 2.059-3.954-.523-1.661-2.293-2.583-3.954-2.059-.026.008-.051.016-.076.025-1.623.532-39.809 13.493-47.373 52.133-.335 1.709.779 3.365 2.488 3.7.121.023.243.04.365.052z" fill="#9b3c82"/></g><g fill="#5b2448"><path d="m630.935 218.004c-2.855-18.791 8.325-38.22 25.044-46.718 10.637-6.973 47.427-4.008 36.366 13.013-5.789 8.908-16.779 12.014-24.626 18.718-5.708 4.388-12.802 11.116-18.441 16.335-5.415 5.011-16.826 8.013-18.343-1.348z"/><path d="m649.49 241.168c8.141-2.956 27.835-9.597 45.228-21.765 2.42-1.699 5.759-1.114 7.459 1.305l.037.052c4.362 6.324 9.599 17.78-3.318 24.553-15.867 8.323-43.551 6.856-50.412.412-1.084-1.067-1.098-2.811-.031-3.895.292-.297.647-.523 1.039-.663z"/><path d="m761.724 208.23c-8.355 2.281-14.73 2.54-30.549 2.85-2.974.024-5.366 2.455-5.342 5.429.084 7.681 4.885 14.776 17.206 14.382 13.723-.439 20.762-11.625 22.135-19.52.262-1.505-.745-2.937-2.25-3.199-.4-.07-.81-.05-1.201.056v.002z"/></g><g clip-path="url(#b)"><path d="m515.443 374.027c13.255.982 26.555-1.184 38.814-6.32 1.609-.664 2.376-2.508 1.711-4.117-.664-1.609-2.508-2.376-4.117-1.711h-.011c-25.067 10.409-46.209 4.194-46.417 4.13-1.666-.51-3.43.426-3.941 2.092-.51 1.666.426 3.43 2.092 3.941 3.879 1.064 7.856 1.73 11.869 1.985z" fill="#9b3c82"/><g fill="#5b2448"><path d="m788.672 172.191c-8.11-19.119-32.671-29.49-51.948-21.563-8.799 3.086-24.733 19.583-11.279 24.682 8.812 3.339 18.601 1.31 27.823 2.757 8.826-.123 38.879 12.35 35.404-5.876z"/><path d="m697.564 429.24s-45.143-7.038-70.852-26.826c-8.094 6.499-1.213 67.048 71.68 77.867 55.94 8.3-.828-51.041-.828-51.041z"/></g></g><circle cx="641.06" cy="306.926" fill="#e57281" opacity=".52" r="35.941"/><path d="m537.552 321.154c1.736.134 3.252-1.164 3.386-2.9.042-.548-.059-1.098-.295-1.595-23.785-50.117-68.938-40.551-69.39-40.447-1.699.383-2.765 2.071-2.382 3.769.383 1.699 2.071 2.765 3.769 2.382 1.653-.366 40.737-8.449 62.309 37 .484 1.02 1.477 1.703 2.603 1.791z" fill="#9b3c82"/><path d="m745.901 272.544c.699.055 1.389-.184 1.905-.658 7.558-6.961 10.844-12.301 10.662-17.318-.233-6.365-6.01-10.942-12.694-16.24-15.006-11.89-13.708-21.516-13.693-21.612.213-1.365-.705-2.65-2.065-2.89-1.354-.242-2.649.654-2.9 2.006-.092.504-2.084 12.495 15.523 26.448 6.62 5.246 10.649 8.701 10.792 12.476.126 3.318-2.833 7.708-9.039 13.421-1.024.944-1.09 2.539-.146 3.564.432.469 1.024.756 1.659.806z" fill="#5b2448"/><path d="m755.866 316.717c-3.42 2.844-7.552 4.701-11.95 5.369-4.344.798-8.813.582-13.06-.63-2.078-.642-4.064-1.551-5.908-2.705-5.741-3.469-9.876-9.068-11.504-15.574l-.038-.15c-.43-1.725-2.177-2.775-3.902-2.345-1.367.341-2.354 1.531-2.436 2.938-.214 6.207 1.823 12.281 5.736 17.104 1.915 2.433 4.191 4.559 6.748 6.305 7.76 5.305 17.515 6.782 26.497 4.014 2.939-.817 5.734-2.085 8.283-3.759 2.623-1.703 4.849-3.949 6.528-6.587.925-1.519.443-3.501-1.076-4.426-1.199-.73-2.732-.599-3.79.322z" fill="#9b3c82"/><path d="m1768.855 1406.463c-33.823 0-326.461-1.556-367.969-2.097 0-.013 0-.013-.014-.026-60.153-.706-13.044-230.025 21.89-216.404 159.242 59.077 239.599 117.377 350.415 181.393 35.319 23.062 18.79 37.134-4.322 37.134z" fill="#f4ada2"/><path clip-path="url(#c)" d="m1675.312 1411.641c-.889 0-1.749-.474-2.201-1.311-.657-1.214-.206-2.731 1.009-3.389 6.527-3.532 9.527-7.226 8.918-10.979-2.546-15.686-60.11-36.056-112.278-45.241-1.36-.239-2.268-1.536-2.028-2.896.239-1.36 1.535-2.267 2.896-2.029 43.117 7.591 112.831 27.706 116.346 49.364.987 6.08-2.874 11.523-11.474 16.177-.379.206-.786.304-1.188.304z" fill="#9b3c82"/><path d="m1087.339 1073.663c65.983 5.507 293.12 93.591 374.256 129.343-38.624 52.949-66.433 157.048-60.708 201.36-370.151 1.48-585.232 32.765-672.499-86.542-88.405-120.862 265.102-251.993 358.951-244.161z" fill="#66b0f0"/><path clip-path="url(#d)" d="m1318.28 1407.654c-1.284 0-2.376-.983-2.488-2.286-7.405-86.318 21.836-175.34 76.313-232.324.954-.998 2.537-1.033 3.535-.08.998.954 1.034 2.537.08 3.535-53.514 55.978-82.231 143.512-74.945 228.442.118 1.376-.902 2.587-2.277 2.705-.074.005-.146.008-.218.008z" fill="#b0dcf7"/><circle cx="1355.836" cy="1375.756" fill="#b0dcf7" r="9.928"/><path d="m728.387 1317.824c-87.406-95.37-144.673-739.367 26.703-722.452 167.439 16.527 287.99 262.471 345.342 535.67 40.827 194.481-230.683 341.023-372.045 186.782z" fill="#66b0f0"/><path d="m967.506 1406.022c-112.174 42.094-426.558 88.273-655.439 27.395-98.27-26.138-5.96-744.747 126.81-869.6 8.545-10.43 29.193-33.084 38.223-49.252 46.721 61.04 167.982 89.872 187.539 83.253 22.049-7.463 46.82-46.391 46.82-46.391 12.993 11.043 30.112 24.743 44.455 42.995 186.996 237.958 231.583 678.497 211.592 811.6z" fill="#66b0f0"/><path d="m848.167 1355.592c-1.308 12.375-56.728 73.43-73.981 76.436-21.456 3.738-83.637-39.015-90.061-57.941 30.196-338.443-2.229-522.65-10.136-640.481 15.479 2.435 31.827-2.498 39.726-10.754 33.574 116.621 101.143 312.792 134.452 632.74z" fill="#f94f46"/><path d="m99.202 1428.411c-110.263-90.835-118.201-289.474-74.297-454.562 99.537-337.368 281.689-449.962 417.91-414.888 108.126 27.84 113.499 300.485 23.983 546.837-60.184 165.631-238.524 428.943-367.596 322.613z" fill="#66b0f0"/><path clip-path="url(#e)" d="m967.914 1410.097c-.067 0-.135-.003-.202-.008-1.376-.11-2.403-1.315-2.292-2.692 6.494-81.005 2.337-222.725-28.807-377.542-16.479-81.919-38.699-158.498-66.043-227.609-31.414-79.398-69.581-148.732-113.442-206.077-.839-1.097-.63-2.666.467-3.505 1.096-.839 2.666-.63 3.505.467 44.141 57.711 82.536 127.448 114.12 207.275 27.453 69.387 49.758 146.253 66.295 228.463 31.246 155.324 35.41 297.585 28.889 378.927-.106 1.309-1.2 2.301-2.49 2.301z" fill="#b0dcf7"/><path d="m466.798 1105.798c44.759-5.397 183.826-25.734 301.485-70.154 0 0 46.032 165.563 94.267 239.679-164.692 131.809-571.768 314.171-763.348 153.087-127.9-107.539 164.335-298.105 367.596-322.612z" fill="#66b0f0"/><path d="m784.038 1330.616c-48.889-62.333-89.27-170.943-100.483-270.262l4.968-.561c11.118 98.476 51.084 206.072 99.449 267.738z" fill="#b0dcf7"/><circle cx="800.428" cy="1259.829" fill="#b0dcf7" r="9.928"/><path d="m683.241 734.758c-5.779 0-11.687-.883-17.462-2.712l1.509-4.767c18.035 5.711 37.431 1.381 48.266-10.773l3.732 3.327c-8.602 9.651-21.929 14.925-36.045 14.925z" fill="#66b0f0"/><path d="m721.027 663.155-7.197 55.193c-12.236 10.227-25.964 13.207-40.923 10.203l-25.685-24.353c4.928-15.997 15.738-69.244 17.415-106.38 34.289 32.866 56.39 65.337 56.39 65.337z" fill="#f94f46"/><g clip-path="url(#f)" fill="#b0dcf7"><path d="m617.944 739.164c-14.502 0-33.143-12.553-56.547-37.988-23.736-25.796-46.743-58.761-61.967-80.575-7.01-10.044-12.547-17.977-14.808-20.305-.962-.99-.939-2.573.052-3.535.99-.962 2.573-.939 3.535.052 2.543 2.618 7.626 9.902 15.321 20.927 27.399 39.257 91.563 131.191 122.75 114.363 31.999-17.266 35.825-133.19 35.86-134.359.041-1.38 1.189-2.464 2.573-2.424 1.38.041 2.465 1.193 2.424 2.573-.146 4.891-3.973 119.99-38.483 138.61-3.284 1.771-6.852 2.661-10.71 2.661z"/><path d="m756.963 691.006c-15.963 0-32.282-20.024-52.323-44.615-12.177-14.942-25.98-31.879-41.72-46.757-1.003-.948-1.048-2.531-.1-3.534s2.531-1.048 3.534-.099c15.976 15.102 29.888 32.172 42.161 47.232 21.445 26.314 38.383 47.099 53.103 41.972.541-.188 3.265-1.765 3.755-14.327.304-7.783-.299-18.323-1.791-31.327-2.554-22.256-6.88-44.196-6.923-44.415-.268-1.354.612-2.67 1.967-2.938 1.354-.268 2.67.612 2.938 1.966.044.221 4.408 22.36 6.986 44.817 4.803 41.851-.302 49.21-5.287 50.946-2.098.731-4.196 1.079-6.3 1.079z"/></g><path d="m1143.504 1056.109c-52.427 74.198-235.292 194.081-280.954 219.214-44.232-61.17-90.105-197.018-94.267-239.679 7.424-2.796 180.873-67.562 221.753-122.381 38.941-52.221 38.058-75.127 57.641-86.863 21.033-12.62 35.921 32.137 16.589 76.961 28.866-7.306 63.327-50.961 83.351-19.385 5.727 9.031 2.747 25.555 2.219 26.729.013.013 0 .013 0 .026 16.407 6.855 18.046 26.654 10.879 47.737 11.313 14.783 9.157 30.125-6.312 53.957 8.611 13.076-.798 29.388-10.899 43.684z" fill="#f4ada2"/><path clip-path="url(#g)" d="m1120.614 948.72c-.757 0-1.504-.342-1.996-.992-.833-1.101-.616-2.669.485-3.502 19.114-14.46 30.672-33.261 30.786-33.45.717-1.179 2.255-1.554 3.435-.837 1.179.717 1.555 2.254.838 3.434-.486.801-12.139 19.783-32.042 34.841-.451.341-.98.506-1.506.506z" fill="#9b3c82"/><path clip-path="url(#g)" d="m1133.633 997.155c-.74 0-1.473-.327-1.967-.955-.854-1.085-.666-2.657.419-3.51 19.558-15.384 28.093-32.806 28.177-32.981.599-1.243 2.092-1.767 3.336-1.169s1.768 2.089 1.171 3.333c-.361.752-9.071 18.604-29.593 34.746-.457.361-1.002.536-1.543.536z" fill="#9b3c82"/><path clip-path="url(#g)" d="m1134.941 1038.295c-.805 0-1.595-.388-2.078-1.107-.77-1.146-.464-2.699.682-3.469 9.875-6.629 20.013-20.406 20.115-20.544.815-1.114 2.379-1.357 3.494-.542 1.114.815 1.357 2.379.542 3.493-.434.594-10.751 14.62-21.364 21.744-.428.288-.912.425-1.391.425z" fill="#9b3c82"/><path d="m1015.987 1173.652c-20.734 15.588-56.329 42.32-77.084 57.955-45.768-60.87-90.259-149.17-114.399-218.974 29.646-14.599 57.343-25.506 85.903-41.513 22.843 70.183 61.297 143.614 105.58 202.532z" fill="#5b2448"/><path clip-path="url(#h)" d="m888.145 1154.41-4.091-2.875c15.06-21.426 57.233-43.903 93.672-41.905l-.274 4.992c-34.811-1.91-75.002 19.435-89.307 39.788z" fill="#fff"/><ellipse cx="953.34" cy="1176.851" fill="#5b2448" rx="83.355" ry="58.15" transform="matrix(.9284 -.3715 .3715 .9284 -368.9703 438.386)"/><ellipse cx="956.666" cy="1185.272" fill="#fff" rx="80.919" ry="49.866" transform="matrix(.9284 -.3716 .3716 .9284 -371.9388 440.3635)"/><path d="m946.218 1158.552c-1.941.118-3.419 1.786-3.301 3.727.025.421.126.833.298 1.219l12.59 28.29c.791 1.777 2.872 2.576 4.649 1.786l.066-.029 43.749-20.535c1.76-.827 2.517-2.924 1.69-4.684s-2.924-2.517-4.684-1.69l-40.492 19.008-11.135-25.013c-.599-1.341-1.965-2.169-3.43-2.079z" fill="#5b2448"/><path clip-path="url(#i)" d="m485.977 1468.486-1.398-4.8c72.595-21.149 144.718-50.749 214.366-87.98 58.049-31.03 113.591-67.115 160.619-104.352l3.104 3.92c-47.259 37.42-103.058 73.673-161.366 104.842-69.952 37.393-142.398 67.125-215.325 88.37z" fill="#b0dcf7"/><path clip-path="url(#i)" d="m467.826 1106.144c-.367 0-.739-.081-1.092-.252-1.242-.604-1.759-2.1-1.155-3.341 20.321-41.793 52.187-153.88 59.411-272.219 3.853-63.128-.011-117.602-11.485-161.91-13.474-52.033-37.331-88.897-70.906-109.568-1.176-.724-1.542-2.264-.818-3.44s2.264-1.542 3.44-.818c34.713 21.371 59.316 59.246 73.125 112.573 11.606 44.817 15.52 99.816 11.635 163.469-7.265 119.021-39.404 231.936-59.905 274.1-.432.888-1.323 1.406-2.25 1.406z" fill="#b0dcf7"/><path clip-path="url(#j)" d="m388.348 1123.468c-1.107 0-2.118-.74-2.415-1.861-.354-1.335.442-2.703 1.777-3.057 44.148-11.692 96.282-20.767 151.477-30.376 80.394-13.995 163.525-28.467 228.953-52.454 1.297-.475 2.733.19 3.208 1.487.475 1.296-.19 2.732-1.487 3.208-65.85 24.142-149.206 38.652-229.817 52.686-55.086 9.589-107.116 18.647-151.055 30.283-.214.056-.429.084-.641.084z" fill="#b0dcf7"/></svg>